<svg width="20" height="18" viewBox="0 0 18 18" fill="none" xmlns="http://www.w3.org/2000/svg">
	<path fill-rule="evenodd" clip-rule="evenodd" d="M14.8333 6.70833C14.9991 6.70833 15.1581 6.77418 15.2753 6.89139C15.3925 7.0086 15.4583 7.16757 15.4583 7.33333V8.375H16.5C16.6658 8.375 16.8247 8.44085 16.9419 8.55806C17.0592 8.67527 17.125 8.83424 17.125 9C17.125 9.16576 17.0592 9.32473 16.9419 9.44194C16.8247 9.55915 16.6658 9.625 16.5 9.625H15.4583V10.6667C15.4583 10.8324 15.3925 10.9914 15.2753 11.1086C15.1581 11.2258 14.9991 11.2917 14.8333 11.2917C14.6676 11.2917 14.5086 11.2258 14.3914 11.1086C14.2742 10.9914 14.2083 10.8324 14.2083 10.6667V9.625H13.1667C13.0009 9.625 12.8419 9.55915 12.7247 9.44194C12.6075 9.32473 12.5417 9.16576 12.5417 9C12.5417 8.83424 12.6075 8.67527 12.7247 8.55806C12.8419 8.44085 13.0009 8.375 13.1667 8.375H14.2083V7.33333C14.2083 7.16757 14.2742 7.0086 14.3914 6.89139C14.5086 6.77418 14.6676 6.70833 14.8333 6.70833ZM7.33333 2.125C5.7775 2.125 4.55583 3.33583 4.55583 4.78167C4.55583 6.2275 5.7775 7.43667 7.33333 7.43667C8.88917 7.43667 10.1108 6.22583 10.1108 4.78C10.1108 3.33417 8.88917 2.125 7.33333 2.125ZM3.30583 4.78167C3.30583 2.6025 5.13083 0.875 7.33333 0.875C9.53583 0.875 11.3608 2.6025 11.3608 4.78167C11.3608 6.96083 9.53583 8.6875 7.33333 8.6875C5.13083 8.6875 3.30583 6.96 3.30583 4.78083V4.78167ZM9.55583 11.4733C8.08439 11.2306 6.58311 11.2306 5.11167 11.4733L4.93833 11.5025C3.3325 11.7667 2.125 13.2067 2.125 14.9267C2.125 15.4692 2.54583 15.875 3.02333 15.875H11.6433C12.12 15.875 12.5417 15.4692 12.5417 14.9258C12.5417 13.2067 11.3342 11.7675 9.72833 11.5025L9.55583 11.4733ZM9.75833 10.24L9.93167 10.2692C12.17 10.6383 13.7917 12.6242 13.7917 14.9267C13.7917 16.1217 12.8492 17.125 11.6433 17.125H3.02333C1.8175 17.125 0.875 16.1217 0.875 14.9258C0.875 12.6242 2.49667 10.6375 4.735 10.2692L4.90833 10.24C6.51415 9.97512 8.15252 9.97512 9.75833 10.24Z" fill="#ADF0D1"/>
</svg>