<svg width="20" height="20" viewBox="0 0 20 20" fill="none" xmlns="http://www.w3.org/2000/svg">
<path d="M9.68811 1C7.27374 1 5.31311 2.96063 5.31311 5.375C5.31311 7.79 7.27374 9.75 9.68811 9.75C12.1025 9.75 14.0631 7.79 14.0631 5.375C14.0631 2.96063 12.1025 1 9.68811 1ZM9.68811 2.25C11.4131 2.25 12.8131 3.65063 12.8131 5.375C12.8131 7.1 11.4131 8.5 9.68811 8.5C7.96311 8.5 6.56311 7.1 6.56311 5.375C6.56311 3.65063 7.96311 2.25 9.68811 2.25ZM2.18811 17.25H9.99998C10.1657 17.25 10.3247 17.3158 10.4419 17.4331C10.5591 17.5503 10.625 17.7092 10.625 17.875C10.625 18.0408 10.5591 18.1997 10.4419 18.3169C10.3247 18.4342 10.1657 18.5 9.99998 18.5H1.56311C1.39735 18.5 1.23838 18.4342 1.12117 18.3169C1.00396 18.1997 0.93811 18.0408 0.93811 17.875V16.625C0.93811 15.1332 1.53074 13.7024 2.58563 12.6475C3.64053 11.5926 5.07127 11 6.56311 11H9.99998C10.1657 11 10.3247 11.0658 10.4419 11.1831C10.5591 11.3003 10.625 11.4592 10.625 11.625C10.625 11.7908 10.5591 11.9497 10.4419 12.0669C10.3247 12.1842 10.1657 12.25 9.99998 12.25H6.56311C5.40279 12.25 4.28999 12.7109 3.46952 13.5314C2.64905 14.3519 2.18811 15.4647 2.18811 16.625V17.25ZM15.0012 11C12.7594 11 10.9394 12.82 10.9394 15.0619C10.9394 17.3038 12.7594 19.1238 15.0012 19.1238C17.2431 19.1238 19.0631 17.3038 19.0631 15.0619C19.0631 12.82 17.2431 11 15.0012 11ZM15.0012 12.25C16.5531 12.25 17.8131 13.51 17.8131 15.0619C17.8131 16.6138 16.5531 17.8738 15.0012 17.8738C13.4494 17.8738 12.1894 16.6138 12.1894 15.0619C12.1894 13.51 13.4494 12.25 15.0012 12.25Z" fill="#FFFFFF"/>
<path d="M16.9856 12.1869L12.1263 17.0463C12.0124 17.1642 11.9494 17.3221 11.9508 17.4859C11.9523 17.6498 12.018 17.8066 12.1339 17.9224C12.2497 18.0383 12.4065 18.1041 12.5704 18.1055C12.7342 18.1069 12.8921 18.0439 13.01 17.9301L17.8694 13.0707C17.9274 13.0127 17.9734 12.9438 18.0048 12.868C18.0362 12.7921 18.0524 12.7109 18.0524 12.6288C18.0524 12.5467 18.0362 12.4655 18.0048 12.3897C17.9734 12.3139 17.9274 12.245 17.8694 12.1869C17.8113 12.1289 17.7425 12.0829 17.6666 12.0515C17.5908 12.0201 17.5096 12.0039 17.4275 12.0039C17.3454 12.0039 17.2642 12.0201 17.1884 12.0515C17.1125 12.0829 17.0437 12.1289 16.9856 12.1869Z" fill="#FFFFFF"/>
</svg>