<svg width="20" height="17" viewBox="0 0 17 17" fill="none" xmlns="http://www.w3.org/2000/svg">
	<path fill-rule="evenodd" clip-rule="evenodd" d="M4.37501 12.8292L4.05835 15.3708C4.01668 15.7 4.12085 16.0292 4.33751 16.275C4.55418 16.5208 4.87085 16.6625 5.20001 16.6625H6.87501C7.20418 16.6625 7.51668 16.5208 7.73751 16.275C7.95418 16.0292 8.05835 15.7 8.01668 15.3708L7.70001 12.8292C8.17501 12 8.89168 11.4333 9.57501 10.8208C10.7625 9.75833 11.875 8.57917 11.875 6.04167C11.875 3.82917 10.5208 0 6.04168 0C1.56251 0 0.200012 3.82917 0.200012 6.04167C0.200012 8.57917 1.31251 9.75833 2.50001 10.8208C3.18335 11.4333 3.90001 12 4.37501 12.8292ZM7.12501 15L7.18335 15.4792C7.19585 15.5708 7.16668 15.6583 7.10835 15.7292C7.05001 15.7958 6.96251 15.8375 6.87085 15.8375H5.19585C5.15086 15.8373 5.10643 15.8275 5.06553 15.8088C5.02462 15.7901 4.98817 15.7629 4.9586 15.729C4.92903 15.6951 4.90703 15.6553 4.89405 15.6122C4.88108 15.5691 4.87743 15.5238 4.88335 15.4792L4.94168 15H7.12501ZM7.02085 14.1667H5.04585L5.56668 10H6.50001L7.02085 14.1667ZM2.83335 10C2.90835 10.0667 2.97918 10.1333 3.05418 10.2C3.56251 10.6542 4.07918 11.0958 4.52501 11.6125L4.72918 9.99583H2.83335V10ZM9.23335 10H7.33751L7.54168 11.6167C7.98751 11.0958 8.50418 10.6583 9.01251 10.2042C9.08751 10.1375 9.16251 10.0708 9.23335 10.0042V10ZM10.025 9.16667C10.6083 8.42917 11.0333 7.49167 11.0333 6.04167C11.0333 4.1375 9.88751 0.833333 6.03335 0.833333C2.17918 0.833333 1.03335 4.1375 1.03335 6.04167C1.03335 7.49167 1.45835 8.42917 2.04168 9.16667H10.025ZM2.70001 7.5C2.92918 7.5 3.11668 7.6875 3.11668 7.91667C3.11668 8.14583 2.92918 8.33333 2.70001 8.33333C2.47085 8.33333 2.28335 8.14583 2.28335 7.91667C2.28335 7.6875 2.47085 7.5 2.70001 7.5ZM3.95001 6.875C4.17918 6.875 4.36668 7.0625 4.36668 7.29167C4.36668 7.52083 4.17918 7.70833 3.95001 7.70833C3.72085 7.70833 3.53335 7.52083 3.53335 7.29167C3.53335 7.0625 3.72085 6.875 3.95001 6.875ZM2.28335 6.25C2.51251 6.25 2.70001 6.4375 2.70001 6.66667C2.70001 6.89583 2.51251 7.08333 2.28335 7.08333C2.05418 7.08333 1.86668 6.89583 1.86668 6.66667C1.86668 6.4375 2.05418 6.25 2.28335 6.25ZM3.53335 5.41667C3.76251 5.41667 3.95001 5.60417 3.95001 5.83333C3.95001 6.0625 3.76251 6.25 3.53335 6.25C3.30418 6.25 3.11668 6.0625 3.11668 5.83333C3.11668 5.60417 3.30418 5.41667 3.53335 5.41667ZM15.2208 4.00417L13.9708 4.62917C13.7667 4.73333 13.6833 4.98333 13.7833 5.1875C13.8875 5.39167 14.1375 5.475 14.3417 5.375L15.5917 4.75C15.7958 4.64583 15.8792 4.39583 15.7792 4.19167C15.7291 4.09358 15.6427 4.01902 15.5383 3.98397C15.4339 3.94891 15.3199 3.95616 15.2208 4.00417ZM13.225 2.50417L12.3042 2.9625C12.1 3.06667 12.0167 3.31667 12.1167 3.52083C12.2208 3.725 12.4708 3.80833 12.675 3.70833L13.6708 3.2125C14.0083 3.54583 14.475 3.75417 14.9875 3.75417C16.0208 3.75417 16.8625 2.9125 16.8625 1.87917C16.8625 0.845833 16.0208 0.00416676 14.9875 0.00416676C13.9542 0.00416676 13.1125 0.845833 13.1125 1.87917C13.1125 2.1 13.15 2.30833 13.2208 2.50417H13.225ZM14.9917 0.8375C15.2679 0.8375 15.5329 0.947247 15.7282 1.1426C15.9236 1.33795 16.0333 1.6029 16.0333 1.87917C16.0333 2.15543 15.9236 2.42039 15.7282 2.61574C15.5329 2.81109 15.2679 2.92083 14.9917 2.92083C14.7154 2.92083 14.4505 2.81109 14.2551 2.61574C14.0598 2.42039 13.95 2.15543 13.95 1.87917C13.95 1.6029 14.0598 1.33795 14.2551 1.1426C14.4505 0.947247 14.7154 0.8375 14.9917 0.8375ZM12.3042 0.779167L11.0542 1.40417C10.85 1.50833 10.7667 1.75833 10.8667 1.9625C10.9708 2.16667 11.2208 2.25 11.425 2.15L12.675 1.525C12.8792 1.42083 12.9625 1.17083 12.8625 0.966667C12.8125 0.868584 12.726 0.794019 12.6216 0.758966C12.5172 0.723913 12.4033 0.731165 12.3042 0.779167Z" fill="#ADF0D1"/>
</svg>