<svg width="28" height="27" viewBox="0 0 28 27" fill="none" xmlns="http://www.w3.org/2000/svg">
<path d="M16.0022 14.014C16.0022 12.8132 15.0197 11.8308 13.8189 11.8308C12.6182 11.8308 11.6357 12.8132 11.6357 14.014C11.6357 15.2148 12.6182 16.1973 13.8189 16.1973C15.0197 16.1973 16.0022 15.2148 16.0022 14.014ZM16.0022 20.5638C16.0022 19.363 15.0197 18.3805 13.8189 18.3805C12.6182 18.3805 11.6357 19.363 11.6357 20.5638C11.6357 21.7646 12.6182 22.747 13.8189 22.747C15.0197 22.747 16.0022 21.7646 16.0022 20.5638ZM16.0022 7.46426C16.0022 6.26347 15.0197 5.28101 13.8189 5.28101C12.6182 5.28101 11.6357 6.26347 11.6357 7.46426C11.6357 8.66504 12.6182 9.64751 13.8189 9.64751C15.0197 9.64751 16.0022 8.66505 16.0022 7.46426Z" fill="white"/>
</svg>
