<svg width="107" height="87" viewBox="0 0 107 87" fill="none" xmlns="http://www.w3.org/2000/svg">
<g clip-path="url(#clip0_934_285)">
<path d="M89.789 38.7757C90.4733 36.99 90.8571 35.0373 90.8571 33.0011C90.8571 24.1557 83.6806 16.9792 74.8351 16.9792C71.5473 16.9792 68.4764 17.9805 65.9396 19.6829C61.3166 11.6719 52.6881 6.29785 42.7912 6.29785C28.0376 6.29785 16.0879 18.2476 16.0879 33.0011C16.0879 33.4518 16.1046 33.9024 16.1213 34.353C6.77512 37.6408 0.065918 46.5531 0.065918 57.0341C0.065918 70.3023 10.8307 81.0671 24.0989 81.0671H85.5165C97.316 81.0671 106.879 71.504 106.879 59.7044C106.879 49.3736 99.5357 40.7451 89.789 38.7757ZM65.7226 49.0231H54.8077V67.7154C54.8077 69.1841 53.606 70.3858 52.1373 70.3858H44.1264C42.6577 70.3858 41.456 69.1841 41.456 67.7154V49.0231H30.5411C28.1544 49.0231 26.9695 46.1525 28.6551 44.4669L46.2459 26.8761C47.2807 25.8413 48.983 25.8413 50.0178 26.8761L67.6086 44.4669C69.2942 46.1525 68.0926 49.0231 65.7226 49.0231Z" fill="white"/>
</g>
<defs>
<clipPath id="clip0_934_285">
<rect width="106.813" height="85.4505" fill="white" transform="translate(0.065918 0.957031)"/>
</clipPath>
</defs>
</svg>
