<svg width="20" height="19" viewBox="0 0 20 19" fill="none" xmlns="http://www.w3.org/2000/svg">
<g clip-path="url(#clip0_162_451)">
<path d="M13.62 10.3977C14.6757 11.1143 15.4154 12.0852 15.4154 13.3798V15.6914H18.4976V13.3798C18.4976 11.6999 15.7467 10.7059 13.62 10.3977Z" fill="white"/>
<path d="M12.3332 9.52702C14.0361 9.52702 15.4154 8.14772 15.4154 6.44479C15.4154 4.74185 14.0361 3.36255 12.3332 3.36255C11.971 3.36255 11.632 3.4396 11.3083 3.54748C11.9479 4.34116 12.3332 5.35059 12.3332 6.44479C12.3332 7.53898 11.9479 8.54841 11.3083 9.34209C11.632 9.44997 11.971 9.52702 12.3332 9.52702Z" fill="white"/>
<path d="M7.70992 9.52702C9.41286 9.52702 10.7922 8.14772 10.7922 6.44479C10.7922 4.74185 9.41286 3.36255 7.70992 3.36255C6.00699 3.36255 4.62769 4.74185 4.62769 6.44479C4.62769 8.14772 6.00699 9.52702 7.70992 9.52702ZM7.70992 4.90367C8.55754 4.90367 9.25104 5.59717 9.25104 6.44479C9.25104 7.2924 8.55754 7.9859 7.70992 7.9859C6.86231 7.9859 6.1688 7.2924 6.1688 6.44479C6.1688 5.59717 6.86231 4.90367 7.70992 4.90367Z" fill="white"/>
<path d="M7.70988 10.2979C5.65249 10.2979 1.54541 11.3304 1.54541 13.3801V15.6918H13.8744V13.3801C13.8744 11.3304 9.76728 10.2979 7.70988 10.2979ZM12.3332 14.1506H3.08653V13.3878C3.24064 12.833 5.62937 11.839 7.70988 11.839C9.79039 11.839 12.1791 12.833 12.3332 13.3801V14.1506Z" fill="white"/>
</g>
<defs>
<clipPath id="clip0_162_451">
<rect width="18.4934" height="18.4934" fill="white" transform="translate(0.77478 0.280518)"/>
</clipPath>
</defs>
</svg>
