<svg xmlns="http://www.w3.org/2000/svg" version="1.1" xmlns:xlink="http://www.w3.org/1999/xlink" xmlns:svgjs="http://svgjs.com/svgjs" width="512" height="512" x="0" y="0" viewBox="0 0 180.622 180.622" style="enable-background:new 0 0 512 512" xml:space="preserve" class=""><g><g transform="translate(1308.817 493.43)"><path fill="#d7dfff" d="M-1218.208-463.118c-15.635-.068-31.132 5.948-42.738 17.555-19.169 19.169-23.096 48.965-9.542 72.443 13.554 23.477 41.322 34.977 67.507 27.96 26.185-7.016 44.476-30.859 44.476-57.968a10.911 10.912 0 0 0-10.911-10.911 10.911 10.912 0 0 0-10.912 10.91 38.096 38.096 0 0 1-28.3 36.892 38.1 38.1 0 0 1-42.958-17.796 38.094 38.094 0 0 1 6.069-46.096 38.076 38.076 0 0 1 39.848-8.96 16.367 16.367 0 0 1-1.126-5.966 16.367 16.367 0 0 1 8.755-14.477 59.903 59.903 0 0 0-20.168-3.585z" data-original="#d7dfff"></path></g></g></svg>