<svg width="25" height="15" viewBox="0 0 20 15" fill="none" xmlns="http://www.w3.org/2000/svg">
				<path fill-rule="evenodd" clip-rule="evenodd" d="M0.833313 2.5C0.833313 1.83696 1.09671 1.20107 1.56555 0.732233C2.03439 0.263392 2.67027 0 3.33331 0H16.6666C17.3297 0 17.9656 0.263392 18.4344 0.732233C18.9033 1.20107 19.1666 1.83696 19.1666 2.5V5.83333C19.1666 6.05435 19.0788 6.26631 18.9226 6.42259C18.7663 6.57887 18.5543 6.66667 18.3333 6.66667C18.1123 6.66667 17.9003 6.57887 17.7441 6.42259C17.5878 6.26631 17.5 6.05435 17.5 5.83333V2.7225L11.535 7.36167C11.0961 7.70305 10.556 7.8884 9.99998 7.8884C9.44398 7.8884 8.90384 7.70305 8.46498 7.36167L2.49998 2.7225V10.8333C2.49998 11.0543 2.58778 11.2663 2.74406 11.4226C2.90034 11.5789 3.1123 11.6667 3.33331 11.6667H9.99998C10.221 11.6667 10.433 11.7545 10.5892 11.9107C10.7455 12.067 10.8333 12.279 10.8333 12.5C10.8333 12.721 10.7455 12.933 10.5892 13.0893C10.433 13.2455 10.221 13.3333 9.99998 13.3333H3.33331C2.67027 13.3333 2.03439 13.0699 1.56555 12.6011C1.09671 12.1323 0.833313 11.4964 0.833313 10.8333V2.5ZM3.85748 1.66667H16.1416L10.5108 6.04667C10.3645 6.16046 10.1845 6.22224 9.99915 6.22224C9.81381 6.22224 9.63377 6.16046 9.48748 6.04667L3.85748 1.66667ZM15.8333 8.33333C16.0543 8.33333 16.2663 8.42113 16.4226 8.57741C16.5789 8.73369 16.6666 8.94565 16.6666 9.16667V10.8333H18.3333C18.5543 10.8333 18.7663 10.9211 18.9226 11.0774C19.0788 11.2337 19.1666 11.4457 19.1666 11.6667C19.1666 11.8877 19.0788 12.0996 18.9226 12.2559C18.7663 12.4122 18.5543 12.5 18.3333 12.5H16.6666V14.1667C16.6666 14.3877 16.5789 14.5996 16.4226 14.7559C16.2663 14.9122 16.0543 15 15.8333 15C15.6123 15 15.4003 14.9122 15.2441 14.7559C15.0878 14.5996 15 14.3877 15 14.1667V12.5H13.3333C13.1123 12.5 12.9003 12.4122 12.7441 12.2559C12.5878 12.0996 12.5 11.8877 12.5 11.6667C12.5 11.4457 12.5878 11.2337 12.7441 11.0774C12.9003 10.9211 13.1123 10.8333 13.3333 10.8333H15V9.16667C15 8.94565 15.0878 8.73369 15.2441 8.57741C15.4003 8.42113 15.6123 8.33333 15.8333 8.33333Z" fill="#ADF0D1"/>
				</svg>