<svg width="27" height="27" viewBox="0 0 27 27" fill="none" xmlns="http://www.w3.org/2000/svg">
<path fill-rule="evenodd" clip-rule="evenodd" d="M6.77502 13.5022C6.76404 12.6116 6.93006 11.7276 7.26345 10.9016C7.59684 10.0756 8.09095 9.32413 8.7171 8.69069C9.34325 8.05725 10.089 7.55451 10.911 7.21164C11.733 6.86878 12.6149 6.69263 13.5055 6.69341C14.3961 6.69419 15.2777 6.87188 16.0991 7.21619C16.9205 7.56049 17.6654 8.06453 18.2904 8.69907C18.9155 9.3336 19.4083 10.086 19.7402 10.9125C20.0721 11.7391 20.2366 12.6234 20.2241 13.514C20.1992 15.2823 19.479 16.9696 18.2193 18.2107C16.9597 19.4518 15.262 20.1468 13.4937 20.1453C11.7255 20.1437 10.029 19.4457 8.77155 18.2024C7.51408 16.9591 6.79681 15.2705 6.77502 13.5022ZM26.7468 10.9409C26.2671 8.45592 25.0981 6.15605 23.3734 4.30412C21.6486 2.4522 19.4377 1.12293 16.9933 0.468237C15.2824 0.00373859 13.4963 -0.116728 11.7385 0.113811C9.98065 0.34435 8.28601 0.921314 6.75266 1.8113C5.21248 2.6973 3.86223 3.87852 2.77925 5.28727C1.69834 6.69209 0.910312 8.29957 0.46183 10.0145C-1.41424 17.0006 2.59329 24.2185 9.43964 26.3726C9.53262 26.4091 9.6256 26.4315 9.70681 26.455C9.71858 26.4656 9.74094 26.4656 9.76448 26.4656C9.84569 26.5009 9.92573 26.5233 10.0081 26.548H10.0422L10.054 26.5598C10.0776 26.5704 10.0999 26.5704 10.1352 26.5704C10.147 26.5821 10.1588 26.5821 10.1694 26.5821C10.2127 26.6045 10.2607 26.6162 10.3094 26.6163H10.32C11.3746 26.8717 12.4409 27 13.4943 27C16.1589 27 18.7305 26.1996 20.8973 24.7741C22.183 23.9428 23.3124 22.8917 24.234 21.6689C25.3033 20.2806 26.0866 18.6938 26.5384 17.0006C27.073 15.0236 27.1443 12.9499 26.7468 10.9409Z" fill="white"/>
</svg>
