<svg width="34" height="31" viewBox="0 0 34 31" fill="none" xmlns="http://www.w3.org/2000/svg">
<path d="M22.8222 29.358C21.7022 28.4148 20.5771 27.287 19.4887 26.0369C18.5195 24.9238 17.5795 23.7138 16.6981 22.451L26.1643 12.9849C27.747 14.0896 29.2469 15.2864 30.5769 16.5172C31.4998 17.3712 32.3409 18.2416 33.0713 19.1089C34.0976 20.3275 34.0177 22.1295 32.8912 23.256L26.9693 29.1779C25.8427 30.3043 24.0408 30.3842 22.8222 29.358Z" fill="#FFD3BC"/>
<path d="M30.5769 16.5172C29.2468 15.2864 27.747 14.0896 26.1642 12.9849L16.6981 22.451C17.5795 23.7137 18.5195 24.9238 19.4887 26.0368C19.7189 26.3009 19.953 26.5616 20.1907 26.8189C21.7686 26.4678 23.281 25.8162 24.7101 24.8674C26.4754 23.6956 28.3 22.1093 29.7161 20.5153C30.5691 19.5551 31.2588 18.6095 31.7802 17.6893C31.3892 17.2883 30.988 16.8975 30.5769 16.5172Z" fill="#FFBE9C"/>
<path d="M29.3052 11.6036C28.3082 10.6067 26.6919 10.6067 25.6949 11.6036C26.6919 10.6067 26.6919 8.99037 25.6949 7.99341C24.698 6.99646 23.0817 6.99646 22.0847 7.99341C23.0817 6.99646 23.0817 5.38013 22.0847 4.38318C21.0877 3.38622 19.4714 3.38622 18.4745 4.38318C19.4714 3.38622 19.4714 1.7699 18.4745 0.772943C17.2475 -0.45401 15.7581 -0.0851824 14.1845 0.938177C13.3808 1.46083 12.5552 2.15419 11.7313 2.89294C12.4588 6.63146 8.94447 7.78583 7.55751 6.92576C6.10986 9.10646 5.61775 11.4081 5.80892 13.589C5.84603 14.0126 5.67408 14.4269 5.34197 14.6922C4.54306 15.3306 3.78072 15.9873 3.06892 16.6533C2.20306 17.4635 1.41181 18.2874 0.720169 19.1087C-0.306081 20.3273 -0.226238 22.1293 0.900325 23.2558L6.8222 29.1777C7.95267 30.3082 9.75822 30.379 10.9804 29.3485C11.8241 28.6371 12.6705 27.8207 13.5018 26.9264C14.1412 26.2385 14.7717 25.5046 15.3852 24.7367C15.6509 24.4043 16.0651 24.232 16.4889 24.2691C18.6699 24.4604 20.9715 23.9682 23.1522 22.5205C24.5227 21.6107 26.226 20.2025 27.6101 18.6443C28.5818 17.5506 29.3962 16.383 29.8279 15.2622C30.3519 13.902 30.312 12.6106 29.3052 11.6036Z" fill="#DA9D81"/>
<path d="M12.0133 5.91905L11.4912 5.42358C10.6691 7.11749 8.55892 7.54702 7.55751 6.92601C6.10986 9.10671 5.61775 11.4083 5.80892 13.5893C5.84603 14.0129 5.67408 14.4271 5.34197 14.6925C4.54306 15.3308 3.78079 15.9876 3.06892 16.6536C2.20306 17.4637 1.41181 18.2877 0.720169 19.109C-0.306081 20.3276 -0.226238 22.1295 0.900325 23.256L6.8222 29.1779C7.95267 30.3083 9.75822 30.3792 10.9804 29.3487C11.8241 28.6373 12.6705 27.8209 13.5018 26.9266C14.1412 26.2387 14.7717 25.5048 15.3852 24.7369C15.6509 24.4045 16.0651 24.2322 16.4889 24.2693C16.8531 24.3012 17.2206 24.3136 17.5904 24.3062C12.4467 22.1809 9.72384 11.729 12.0133 5.91905Z" fill="#C7856A"/>
<path d="M2.17815 10.7114C1.29901 11.5905 1.29901 13.0158 2.17815 13.895L3.18112 14.8979C4.06026 15.7771 5.48558 15.7771 6.36472 14.8979C7.24386 14.0188 7.24386 12.5935 6.36472 11.7143L5.36175 10.7114C4.48269 9.83222 3.05729 9.83222 2.17815 10.7114Z" fill="#FFBE9C"/>
<path d="M4.90374 7.06976C4.0246 7.9489 4.0246 9.37421 4.90374 10.2533L5.90671 11.2563C6.78585 12.1355 8.21116 12.1355 9.0903 11.2563C9.96944 10.3772 9.96944 8.95187 9.0903 8.07272L8.08733 7.06976C7.20819 6.19062 5.78288 6.19062 4.90374 7.06976Z" fill="#FFD3BC"/>
<path d="M8.08733 3.88616C7.20819 4.7653 7.20819 6.19062 8.08733 7.06976L9.0903 8.07272C9.96944 8.95187 11.3948 8.95187 12.2739 8.07272C13.153 7.19358 13.153 5.76827 12.2739 4.88913L11.2709 3.88616C10.3918 3.00702 8.96647 3.00702 8.08733 3.88616Z" fill="#FFBE9C"/>
<path d="M11.2709 0.702568C10.3918 1.58171 10.3918 3.00702 11.2709 3.88616L12.2739 4.88913C13.153 5.76827 14.5783 5.76827 15.4575 4.88913C16.3366 4.00999 16.3366 2.58468 15.4575 1.70554L14.4545 0.702568C13.5754 -0.176572 12.1501 -0.176572 11.2709 0.702568Z" fill="#FFD3BC"/>
</svg>
