<svg width="42" height="30" viewBox="0 0 42 30" fill="none" xmlns="http://www.w3.org/2000/svg">
<path d="M29.3806 17.1187C31.9493 18.8624 33.7493 21.2248 33.7493 24.3748V29.9997H41.2491V24.3748C41.2491 20.2873 34.5555 17.8686 29.3806 17.1187Z" fill="white"/>
<path d="M26.2493 14.9997C30.393 14.9997 33.7492 11.6435 33.7492 7.49986C33.7492 3.35619 30.393 0 26.2493 0C25.3681 0 24.5431 0.187496 23.7556 0.449991C25.3118 2.3812 26.2493 4.83741 26.2493 7.49986C26.2493 10.1623 25.3118 12.6185 23.7556 14.5497C24.5431 14.8122 25.3681 14.9997 26.2493 14.9997Z" fill="white"/>
<path d="M14.9996 14.9997C19.1433 14.9997 22.4995 11.6435 22.4995 7.49986C22.4995 3.35619 19.1433 0 14.9996 0C10.8559 0 7.49976 3.35619 7.49976 7.49986C7.49976 11.6435 10.8559 14.9997 14.9996 14.9997ZM14.9996 3.74993C17.0621 3.74993 18.7495 5.4374 18.7495 7.49986C18.7495 9.56232 17.0621 11.2498 14.9996 11.2498C12.9372 11.2498 11.2497 9.56232 11.2497 7.49986C11.2497 5.4374 12.9372 3.74993 14.9996 3.74993Z" fill="white"/>
<path d="M14.9997 16.8755C9.99356 16.8755 0 19.3879 0 24.3753V30.0002H29.9994V24.3753C29.9994 19.3879 20.0059 16.8755 14.9997 16.8755ZM26.2495 26.2503H3.74993V24.3941C4.12492 23.0441 9.93731 20.6254 14.9997 20.6254C20.0621 20.6254 25.8745 23.0441 26.2495 24.3753V26.2503Z" fill="white"/>
</svg>
