<svg width="19" height="19" viewBox="0 0 19 19" fill="none" xmlns="http://www.w3.org/2000/svg">
<g clip-path="url(#clip0_162_467)">
<path d="M14.972 10.0025C15.0029 9.75591 15.026 9.50933 15.026 9.24734C15.026 8.98535 15.0029 8.73877 14.972 8.49219L16.5979 7.22077C16.7443 7.10519 16.7829 6.89713 16.6904 6.72761L15.1493 4.06148C15.0799 3.93819 14.9489 3.86884 14.8102 3.86884C14.764 3.86884 14.7178 3.87654 14.6792 3.89195L12.7605 4.66251C12.3598 4.35429 11.9283 4.1 11.4583 3.90736L11.1655 1.86538C11.1424 1.68045 10.9805 1.54175 10.7879 1.54175H7.70566C7.51302 1.54175 7.35121 1.68045 7.32809 1.86538L7.03528 3.90736C6.56524 4.1 6.13372 4.36199 5.73303 4.66251L3.81434 3.89195C3.76811 3.87654 3.72187 3.86884 3.67564 3.86884C3.54464 3.86884 3.41365 3.93819 3.3443 4.06148L1.80318 6.72761C1.70301 6.89713 1.74924 7.10519 1.89565 7.22077L3.52153 8.49219C3.4907 8.73877 3.46759 8.99306 3.46759 9.24734C3.46759 9.50162 3.4907 9.75591 3.52153 10.0025L1.89565 11.2739C1.74924 11.3895 1.71071 11.5975 1.80318 11.7671L3.3443 14.4332C3.41365 14.5565 3.54464 14.6258 3.68334 14.6258C3.72958 14.6258 3.77581 14.6181 3.81434 14.6027L5.73303 13.8322C6.13372 14.1404 6.56524 14.3947 7.03528 14.5873L7.32809 16.6293C7.35121 16.8142 7.51302 16.9529 7.70566 16.9529H10.7879C10.9805 16.9529 11.1424 16.8142 11.1655 16.6293L11.4583 14.5873C11.9283 14.3947 12.3598 14.1327 12.7605 13.8322L14.6792 14.6027C14.7255 14.6181 14.7717 14.6258 14.8179 14.6258C14.9489 14.6258 15.0799 14.5565 15.1493 14.4332L16.6904 11.7671C16.7829 11.5975 16.7443 11.3895 16.5979 11.2739L14.972 10.0025ZM13.4463 8.68483C13.4772 8.92371 13.4849 9.08552 13.4849 9.24734C13.4849 9.40916 13.4694 9.57868 13.4463 9.80985L13.3385 10.6806L14.0243 11.22L14.8565 11.8672L14.3171 12.7996L13.3385 12.4066L12.5371 12.083L11.8436 12.607C11.5122 12.8536 11.1963 13.0385 10.8804 13.1695L10.0636 13.5008L9.94028 14.3716L9.78617 15.4118H8.70739L8.56098 14.3716L8.43769 13.5008L7.6209 13.1695C7.28956 13.0308 6.98134 12.8536 6.67311 12.6224L5.97191 12.083L5.15511 12.4143L4.1765 12.8073L3.63711 11.8749L4.46932 11.2277L5.15511 10.6883L5.04723 9.81755C5.02412 9.57868 5.00871 9.40145 5.00871 9.24734C5.00871 9.09323 5.02412 8.916 5.04723 8.68483L5.15511 7.8141L4.46932 7.27471L3.63711 6.62744L4.1765 5.69506L5.15511 6.08805L5.95649 6.41168L6.65 5.8877C6.98134 5.64112 7.29727 5.45619 7.6132 5.32519L8.42999 4.99385L8.55328 4.12312L8.70739 3.08287H9.77847L9.92487 4.12312L10.0482 4.99385L10.865 5.32519C11.1963 5.46389 11.5045 5.64112 11.8127 5.87229L12.514 6.41168L13.3307 6.08034L14.3094 5.68736L14.8487 6.61973L14.0243 7.27471L13.3385 7.8141L13.4463 8.68483ZM9.24678 6.1651C7.54385 6.1651 6.16455 7.5444 6.16455 9.24734C6.16455 10.9503 7.54385 12.3296 9.24678 12.3296C10.9497 12.3296 12.329 10.9503 12.329 9.24734C12.329 7.5444 10.9497 6.1651 9.24678 6.1651ZM9.24678 10.7885C8.39917 10.7885 7.70566 10.095 7.70566 9.24734C7.70566 8.39972 8.39917 7.70622 9.24678 7.70622C10.0944 7.70622 10.7879 8.39972 10.7879 9.24734C10.7879 10.095 10.0944 10.7885 9.24678 10.7885Z" fill="white"/>
</g>
<defs>
<clipPath id="clip0_162_467">
<rect width="18.4934" height="18.4934" fill="white" transform="translate(0 0.000244141)"/>
</clipPath>
</defs>
</svg>
