<svg width="14" height="14" viewBox="0 0 14 14" fill="none" xmlns="http://www.w3.org/2000/svg">
<path d="M6.66667 8.33301C6.50185 8.33301 6.34074 8.38188 6.20369 8.47345C6.06665 8.56502 5.95984 8.69517 5.89677 8.84744C5.8337 8.99971 5.81719 9.16727 5.84935 9.32892C5.8815 9.49057 5.96087 9.63905 6.07741 9.7556C6.19396 9.87214 6.34244 9.95151 6.50409 9.98366C6.66574 10.0158 6.8333 9.99931 6.98557 9.93624C7.13784 9.87317 7.26799 9.76636 7.35956 9.62932C7.45113 9.49228 7.5 9.33116 7.5 9.16634C7.5 8.94533 7.41221 8.73337 7.25593 8.57709C7.09964 8.4208 6.88768 8.33301 6.66667 8.33301ZM6.66667 7.33301C6.84348 7.33301 7.01305 7.26277 7.13807 7.13775C7.2631 7.01272 7.33334 6.84315 7.33334 6.66634V4.66634C7.33334 4.48953 7.2631 4.31996 7.13807 4.19494C7.01305 4.06991 6.84348 3.99967 6.66667 3.99967C6.48986 3.99967 6.32029 4.06991 6.19527 4.19494C6.07024 4.31996 6 4.48953 6 4.66634V6.66634C6 6.84315 6.07024 7.01272 6.19527 7.13775C6.32029 7.26277 6.48986 7.33301 6.66667 7.33301ZM6.66667 0.333008C5.34813 0.333008 4.0592 0.724001 2.96287 1.45654C1.86654 2.18909 1.01206 3.23028 0.507473 4.44845C0.00288856 5.66663 -0.129134 7.00707 0.128101 8.30028C0.385336 9.59348 1.02027 10.7814 1.95262 11.7137C2.88497 12.6461 4.07286 13.281 5.36607 13.5382C6.65927 13.7955 7.99972 13.6635 9.21789 13.1589C10.4361 12.6543 11.4773 11.7998 12.2098 10.7035C12.9423 9.60715 13.3333 8.31822 13.3333 6.99967C13.3314 5.23216 12.6284 3.5376 11.3786 2.28777C10.1287 1.03795 8.43418 0.334949 6.66667 0.333008ZM6.66667 12.333C5.61184 12.333 4.58069 12.0202 3.70363 11.4342C2.82657 10.8481 2.14298 10.0152 1.73931 9.04065C1.33564 8.06611 1.23003 6.99376 1.43581 5.95919C1.6416 4.92463 2.14955 3.97432 2.89543 3.22844C3.64131 2.48256 4.59162 1.97461 5.62619 1.76882C6.66075 1.56303 7.73311 1.66865 8.70765 2.07232C9.68219 2.47598 10.5151 3.15957 11.1012 4.03663C11.6872 4.9137 12 5.94484 12 6.99967C11.9982 8.41362 11.4358 9.76915 10.436 10.769C9.43614 11.7688 8.08062 12.3312 6.66667 12.333Z" fill="#F2F7A1"/>
</svg>
