<svg width="15" height="16" viewBox="0 0 15 16" fill="none" xmlns="http://www.w3.org/2000/svg">
<path d="M12.6405 1.85264H11.8699V0.311523H10.3288V1.85264H4.16433V0.311523H2.62322V1.85264H1.85266C1.00504 1.85264 0.311539 2.54614 0.311539 3.39376V14.1816C0.311539 15.0292 1.00504 15.7227 1.85266 15.7227H12.6405C13.4881 15.7227 14.1816 15.0292 14.1816 14.1816V3.39376C14.1816 2.54614 13.4881 1.85264 12.6405 1.85264ZM12.6405 14.1816H1.85266V6.476H12.6405V14.1816ZM1.85266 4.93488V3.39376H12.6405V4.93488H1.85266ZM6.13697 12.9949L10.7064 8.42551L9.88959 7.60872L6.13697 11.3613L4.51109 9.73546L3.69429 10.5523L6.13697 12.9949Z" fill="white"/>
</svg>
