<svg width="6" height="18" viewBox="0 0 6 18" fill="none" xmlns="http://www.w3.org/2000/svg">
<path d="M5.00226 9.01377C5.00226 7.81298 4.0198 6.83051 2.81901 6.83051C1.61822 6.83051 0.635757 7.81298 0.635757 9.01377C0.635757 10.2146 1.61822 11.197 2.81901 11.197C4.0198 11.197 5.00226 10.2146 5.00226 9.01377ZM5.00226 15.5635C5.00226 14.3627 4.01979 13.3803 2.81901 13.3803C1.61822 13.3803 0.635756 14.3627 0.635756 15.5635C0.635756 16.7643 1.61822 17.7468 2.81901 17.7468C4.01979 17.7468 5.00226 16.7643 5.00226 15.5635ZM5.00226 2.46401C5.00226 1.26322 4.0198 0.280762 2.81901 0.280762C1.61822 0.280762 0.635757 1.26322 0.635757 2.46401C0.635757 3.6648 1.61822 4.64726 2.81901 4.64726C4.0198 4.64726 5.00226 3.6648 5.00226 2.46401Z" fill="white"/>
</svg>
