<svg width="16" height="16" viewBox="0 0 16 16" fill="none" xmlns="http://www.w3.org/2000/svg">
<path d="M13.972 9.00249C14.0028 8.75591 14.026 8.50933 14.026 8.24734C14.026 7.98535 14.0028 7.73877 13.972 7.49219L15.5979 6.22077C15.7443 6.10519 15.7828 5.89713 15.6904 5.72761L14.1493 3.06148C14.0799 2.93819 13.9489 2.86884 13.8102 2.86884C13.764 2.86884 13.7177 2.87654 13.6792 2.89195L11.7605 3.66251C11.3598 3.35429 10.9283 3.1 10.4583 2.90736L10.1655 0.865383C10.1423 0.680449 9.98053 0.541748 9.78788 0.541748H6.70565C6.51301 0.541748 6.35119 0.680449 6.32807 0.865383L6.03526 2.90736C5.56522 3.1 5.13371 3.36199 4.73302 3.66251L2.81432 2.89195C2.76809 2.87654 2.72186 2.86884 2.67562 2.86884C2.54463 2.86884 2.41363 2.93819 2.34428 3.06148L0.803165 5.72761C0.702992 5.89713 0.749226 6.10519 0.895632 6.22077L2.52151 7.49219C2.49069 7.73877 2.46757 7.99306 2.46757 8.24734C2.46757 8.50162 2.49069 8.75591 2.52151 9.00249L0.895632 10.2739C0.749226 10.3895 0.710698 10.5975 0.803165 10.7671L2.34428 13.4332C2.41363 13.5565 2.54463 13.6258 2.68333 13.6258C2.72956 13.6258 2.7758 13.6181 2.81432 13.6027L4.73302 12.8322C5.13371 13.1404 5.56522 13.3947 6.03526 13.5873L6.32807 15.6293C6.35119 15.8142 6.51301 15.9529 6.70565 15.9529H9.78788C9.98053 15.9529 10.1423 15.8142 10.1655 15.6293L10.4583 13.5873C10.9283 13.3947 11.3598 13.1327 11.7605 12.8322L13.6792 13.6027C13.7254 13.6181 13.7717 13.6258 13.8179 13.6258C13.9489 13.6258 14.0799 13.5565 14.1493 13.4332L15.6904 10.7671C15.7828 10.5975 15.7443 10.3895 15.5979 10.2739L13.972 9.00249ZM12.4463 7.68483C12.4771 7.92371 12.4848 8.08552 12.4848 8.24734C12.4848 8.40916 12.4694 8.57868 12.4463 8.80985L12.3384 9.68058L13.0242 10.22L13.8564 10.8672L13.317 11.7996L12.3384 11.4066L11.5371 11.083L10.8436 11.607C10.5122 11.8536 10.1963 12.0385 9.88035 12.1695L9.06356 12.5008L8.94027 13.3716L8.78616 14.4118H7.70738L7.56097 13.3716L7.43768 12.5008L6.62089 12.1695C6.28955 12.0308 5.98132 11.8536 5.6731 11.6224L4.97189 11.083L4.1551 11.4143L3.17649 11.8073L2.6371 10.8749L3.4693 10.2277L4.1551 9.68829L4.04722 8.81755C4.0241 8.57868 4.00869 8.40145 4.00869 8.24734C4.00869 8.09323 4.0241 7.916 4.04722 7.68483L4.1551 6.8141L3.4693 6.27471L2.6371 5.62744L3.17649 4.69506L4.1551 5.08805L4.95648 5.41168L5.64998 4.8877C5.98132 4.64112 6.29725 4.45619 6.61318 4.32519L7.42997 3.99385L7.55326 3.12312L7.70738 2.08287H8.77845L8.92486 3.12312L9.04815 3.99385L9.86494 4.32519C10.1963 4.46389 10.5045 4.64112 10.8127 4.87229L11.5139 5.41168L12.3307 5.08034L13.3093 4.68736L13.8487 5.61973L13.0242 6.27471L12.3384 6.8141L12.4463 7.68483ZM8.24677 5.1651C6.54383 5.1651 5.16453 6.5444 5.16453 8.24734C5.16453 9.95028 6.54383 11.3296 8.24677 11.3296C9.9497 11.3296 11.329 9.95028 11.329 8.24734C11.329 6.5444 9.9497 5.1651 8.24677 5.1651ZM8.24677 9.78846C7.39915 9.78846 6.70565 9.09496 6.70565 8.24734C6.70565 7.39972 7.39915 6.70622 8.24677 6.70622C9.09438 6.70622 9.78788 7.39972 9.78788 8.24734C9.78788 9.09496 9.09438 9.78846 8.24677 9.78846Z" fill="white"/>
</svg>
