<svg width="18" height="13" viewBox="0 0 18 13" fill="none" xmlns="http://www.w3.org/2000/svg">
<path d="M12.6198 7.39771C13.6755 8.11433 14.4152 9.08523 14.4152 10.3798V12.6914H17.4975V10.3798C17.4975 8.69995 14.7466 7.70593 12.6198 7.39771Z" fill="white"/>
<path d="M11.3331 6.52702C13.036 6.52702 14.4153 5.14772 14.4153 3.44479C14.4153 1.74185 13.036 0.362549 11.3331 0.362549C10.9709 0.362549 10.6319 0.439605 10.3082 0.547483C10.9478 1.34116 11.3331 2.35059 11.3331 3.44479C11.3331 4.53898 10.9478 5.54841 10.3082 6.34209C10.6319 6.44997 10.9709 6.52702 11.3331 6.52702Z" fill="white"/>
<path d="M6.70983 6.52702C8.41277 6.52702 9.79207 5.14772 9.79207 3.44479C9.79207 1.74185 8.41277 0.362549 6.70983 0.362549C5.00689 0.362549 3.62759 1.74185 3.62759 3.44479C3.62759 5.14772 5.00689 6.52702 6.70983 6.52702ZM6.70983 1.90367C7.55745 1.90367 8.25095 2.59717 8.25095 3.44479C8.25095 4.2924 7.55745 4.9859 6.70983 4.9859C5.86222 4.9859 5.16871 4.2924 5.16871 3.44479C5.16871 2.59717 5.86222 1.90367 6.70983 1.90367Z" fill="white"/>
<path d="M6.7097 7.29785C4.65231 7.29785 0.545227 8.3304 0.545227 10.3801V12.6918H12.8742V10.3801C12.8742 8.3304 8.76709 7.29785 6.7097 7.29785ZM11.3331 11.1506H2.08635V10.3878C2.24046 9.83299 4.62919 8.83897 6.7097 8.83897C8.79021 8.83897 11.1789 9.83299 11.3331 10.3801V11.1506Z" fill="white"/>
</svg>
