<svg width="52" height="33" viewBox="0 0 52 33" fill="none" xmlns="http://www.w3.org/2000/svg">
<path d="M33.1771 5.62101H41.5459V9.93851C41.5459 11.8855 40.7713 13.6565 39.1679 15.3505C37.6198 16.9034 35.8323 18.189 33.8759 19.1565L33.1771 18.843V5.64301M29.8567 2.24951V21.032L33.9409 22.88C39.7096 20.163 44.8717 16.0655 44.8717 9.93851V3.21751C44.8703 2.96028 44.7686 2.71407 44.589 2.5327C44.4093 2.35132 44.1663 2.24951 43.9129 2.24951H29.8567Z" fill="#52B1DC"/>
<path d="M18.823 5.62101V18.821L18.1243 19.1345C16.1678 18.167 14.3803 16.8814 12.8322 15.3285C11.2072 13.6345 10.4543 11.8635 10.4543 9.91651V5.62101H18.823ZM22.1434 2.24951H8.08717C7.83383 2.24951 7.59078 2.35132 7.41114 2.5327C7.23149 2.71407 7.12985 2.96028 7.12842 3.21751V9.93851C7.12842 16.0655 12.2905 20.163 18.0593 22.88L22.1434 21.032V2.24951Z" fill="#52B1DC"/>
<path fill-rule="evenodd" clip-rule="evenodd" d="M25.2309 23.4025C15.5026 23.4025 8.12509 15.1195 8.12509 4.91151C8.12509 3.85001 8.85634 3.30001 9.02426 2.24951H3.73218L5.82301 4.80151L3.87301 7.70001L6.34843 9.68551L5.10801 12.9855L7.96801 14.289L7.51301 17.7925L10.5897 18.3425L10.9472 21.8515L14.0834 21.593L15.2318 24.9205L18.2001 23.9085L20.4968 23.7105L22.7176 25.1185L25.1822 27.5L27.3488 25.157L25.2309 23.4025Z" fill="#52B1DC"/>
<path fill-rule="evenodd" clip-rule="evenodd" d="M24.6406 25.1571L26.8073 27.5001L29.299 25.1186L31.5198 23.7106L33.8165 23.9086L36.7848 24.9206L37.9331 21.5931L41.0423 21.8296L41.3998 18.3206L44.4765 17.7706L44.0215 14.2671L46.8815 12.9636L45.641 9.66361L48.1273 7.70011L46.1773 4.81811L48.2681 2.26611H42.976C43.144 3.30011 43.8752 3.85011 43.8752 4.91161C43.8752 15.1196 36.4815 23.4026 26.7531 23.4026L24.6406 25.1571Z" fill="#52B1DC"/>
<path d="M34.0169 22.88C28.6977 20.0934 23.3767 20.0934 18.054 22.88C21.2606 25.003 22.297 27.126 21.1631 29.249C20.6215 30.2665 31.3573 30.1785 30.8373 29.117C29.819 27.038 30.8788 24.959 34.0169 22.88Z" fill="#52B1DC"/>
<path d="M29.5101 25.2451H22.4685C20.5477 25.25 18.6966 24.5147 17.289 23.1876C15.8815 21.8605 15.0223 20.0404 14.8851 18.0951L13.6826 1.27056C13.6715 1.11472 13.692 0.958219 13.743 0.810797C13.794 0.663375 13.8744 0.528188 13.979 0.413653C14.0837 0.299117 14.2105 0.207684 14.3514 0.145046C14.4924 0.0824074 14.6446 0.0499046 14.7985 0.0495605H37.2018C37.3557 0.0499046 37.5078 0.0824074 37.6488 0.145046C37.7898 0.207684 37.9166 0.299117 38.0212 0.413653C38.1259 0.528188 38.2062 0.663375 38.2572 0.810797C38.3082 0.958219 38.3288 1.11472 38.3176 1.27056L37.0826 18.1061C36.943 20.0476 36.0842 21.8633 34.6792 23.1879C33.2743 24.5124 31.4273 25.2475 29.5101 25.2451Z" fill="#70C8EE"/>
<path d="M36.2917 6.19311C35.3155 6.0735 34.407 5.62478 33.7117 4.91879C33.0164 4.21279 32.5745 3.29035 32.4567 2.29911C32.4567 2.25511 32.4025 2.25511 32.3971 2.29911C32.2812 3.29107 31.8398 4.21456 31.1442 4.9209C30.4486 5.62725 29.5391 6.07537 28.5621 6.19311C28.5242 6.19311 28.5242 6.24811 28.5621 6.25361C29.5398 6.36948 30.4503 6.81699 31.1463 7.52369C31.8423 8.23039 32.283 9.15492 32.3971 10.1476C32.3971 10.1861 32.4567 10.1861 32.4567 10.1476C32.5727 9.15565 33.014 8.23217 33.7096 7.52582C34.4053 6.81948 35.3148 6.37136 36.2917 6.25361C36.3188 6.24811 36.3188 6.19311 36.2917 6.19311Z" fill="#95DCFF"/>
<path d="M26.0001 9.93857V3.21757C26.0005 3.01144 25.9354 2.81069 25.8143 2.6452C25.6933 2.4797 25.5229 2.35831 25.3285 2.29907H16.2501C16.2174 2.299 16.185 2.30576 16.155 2.31894C16.125 2.33212 16.0979 2.35143 16.0756 2.37568C16.0532 2.39993 16.036 2.4286 16.025 2.45989C16.0141 2.49118 16.0096 2.52443 16.0118 2.55757L17.1439 17.9576C17.1938 18.7285 17.4082 19.4792 17.7722 20.1576C17.8502 20.3026 17.976 20.4151 18.1275 20.4755C18.279 20.5358 18.4466 20.5401 18.601 20.4876C20.7665 19.7369 22.6455 18.3151 23.9729 16.4225C25.3004 14.5299 26.0094 12.2621 26.0001 9.93857Z" fill="#95DCFF"/>
<path d="M36.7306 27.6926H15.2697C14.8244 27.6926 14.3973 27.8722 14.0824 28.192C13.7675 28.5117 13.5906 28.9454 13.5906 29.3976V31.9001C13.5976 32.1871 13.7149 32.4598 13.9173 32.6602C14.1197 32.8606 14.3912 32.9727 14.6739 32.9726H37.3752C37.6578 32.9727 37.9294 32.8606 38.1318 32.6602C38.3342 32.4598 38.4514 32.1871 38.4585 31.9001V29.3976C38.4586 29.1695 38.4136 28.9437 38.3262 28.7335C38.2388 28.5233 38.1107 28.3331 37.9496 28.1742C37.7884 28.0152 37.5975 27.8906 37.3881 27.8079C37.1788 27.7252 36.9552 27.686 36.7306 27.6926Z" fill="#70C8EE"/>
</svg>
