<svg width="19" height="20" viewBox="0 0 19 20" fill="none" xmlns="http://www.w3.org/2000/svg">
<g clip-path="url(#clip0_162_462)">
<path d="M14.6405 2.85264H13.8699V1.31152H12.3288V2.85264H6.16432V1.31152H4.6232V2.85264H3.85264C3.00503 2.85264 2.31152 3.54614 2.31152 4.39376V15.1816C2.31152 16.0292 3.00503 16.7227 3.85264 16.7227H14.6405C15.4881 16.7227 16.1816 16.0292 16.1816 15.1816V4.39376C16.1816 3.54614 15.4881 2.85264 14.6405 2.85264ZM14.6405 15.1816H3.85264V7.476H14.6405V15.1816ZM3.85264 5.93488V4.39376H14.6405V5.93488H3.85264ZM8.13695 13.9949L12.7064 9.42551L11.8896 8.60872L8.13695 12.3613L6.51107 10.7355L5.69428 11.5523L8.13695 13.9949Z" fill="white"/>
</g>
<defs>
<clipPath id="clip0_162_462">
<rect width="18.4934" height="18.4934" fill="white" transform="translate(0 0.541504)"/>
</clipPath>
</defs>
</svg>
