<svg width="36" height="34" viewBox="0 0 36 34" fill="none" xmlns="http://www.w3.org/2000/svg">
<path d="M26.069 2.02534C22.7882 0.311441 19.0282 -0.32775 15.3455 0.20236C11.6628 0.732471 8.25318 2.40371 5.62112 4.96876C2.98906 7.53381 1.27446 10.8564 0.731079 14.4447C0.187699 18.033 0.844405 21.6965 2.60401 24.8929C2.60401 24.8929 7.74768 32.9911 17.879 32.9911C25.5187 32.9911 34.4453 25.2729 34.4453 16.9129C34.4453 10.4698 26.069 2.02534 26.069 2.02534Z" fill="#52B2DD"/>
<path d="M32.7292 22.9253C32.3479 23.3222 32.4649 23.4362 32.1182 23.66C31.7715 23.8837 31.6502 23.888 31.6502 24.1708C31.6502 24.4537 31.7975 24.4537 31.6502 24.7366C31.5029 25.0195 31.2429 25.2771 31.4465 25.3911C31.6502 25.5051 31.2732 25.8428 31.5635 25.6444C31.8539 25.446 31.9969 25.332 32.4649 24.5128C32.9632 23.6304 33.0195 23.2462 32.8722 23.0942L32.7292 22.9253Z" fill="#8EB63E"/>
<path d="M25.926 11.5633C25.9823 11.918 25.575 12.4416 25.926 12.2431C26.277 12.0447 26.4763 12.2896 26.3593 11.9264C26.2423 11.5633 25.8783 11.2551 25.926 11.5633Z" fill="#8EB63E"/>
<path d="M26.069 2.02515C27.8286 5.22155 28.4853 8.88501 27.9419 12.4733C27.3986 16.0617 25.684 19.3842 23.0519 21.9493C20.4198 24.5143 17.0102 26.1856 13.3275 26.7157C9.64484 27.2458 5.88485 26.6066 2.604 24.8927C3.88242 27.215 5.70085 29.2136 7.91385 30.7286C10.1268 32.2436 12.673 33.2331 15.3487 33.6177C18.0243 34.0024 20.7553 33.7716 23.323 32.9439C25.8908 32.1162 28.2241 30.7145 30.1364 28.8509C32.0487 26.9873 33.4869 24.7135 34.3359 22.2114C35.1849 19.7093 35.4213 17.0484 35.026 14.4414C34.6307 11.8344 33.6148 9.35374 32.0595 7.19776C30.5042 5.04179 28.4527 3.27036 26.069 2.02515Z" fill="#0098C8"/>
<path d="M9.06067 3.35951C9.55467 3.26662 9.99234 3.17373 9.92734 2.93728C9.86234 2.70084 9.59367 2.27017 9.49401 2.4264C9.357 2.59186 9.25001 2.77893 9.17767 2.97951C9.12134 3.23706 8.56667 3.45662 9.06067 3.35951Z" fill="#A8C66A"/>
<path d="M10.4299 4.79505C10.6899 4.79505 11.0495 4.97238 11.0409 4.58816C11.0322 4.20394 10.8762 4.00127 11.0409 3.90838C11.2055 3.81549 11.0972 4.24616 11.2792 4.17016C11.4612 4.09416 11.3962 3.83238 11.5522 3.92527C11.7082 4.01816 11.8252 4.07727 11.7082 4.31371C11.5912 4.55016 11.3962 4.84149 11.6865 4.7106C11.9769 4.57971 12.2499 4.31371 12.1459 4.5586C12.0419 4.80349 11.8425 4.83305 11.6215 5.01883C11.4005 5.2046 11.2142 5.12438 11.3009 5.32283C11.3875 5.52127 11.4352 5.64371 11.6475 5.57616C11.8599 5.5086 12.1155 5.78727 12.1155 5.78727C12.3365 5.93505 12.3669 5.71127 12.6095 5.95616C12.8522 6.20105 12.9865 6.52194 13.1512 6.20105C13.3159 5.88016 13.5412 5.91816 13.4329 5.63527C13.3245 5.35238 12.9995 4.95549 13.2119 5.01038C13.4242 5.06527 13.4025 5.36083 13.6062 5.27638C13.754 5.21479 13.8891 5.12752 14.0049 5.01883C14.2085 4.87105 14.3255 4.88794 14.1132 4.6346C13.9009 4.38127 13.5455 4.4066 13.4719 4.24616C13.3982 4.08571 13.5412 4.10683 13.4719 3.91683C13.3557 3.6493 13.1554 3.42459 12.8999 3.27505C12.6355 3.16949 12.3452 3.1906 12.3062 3.0006C12.2841 2.91151 12.2372 2.83008 12.1707 2.76527C12.1042 2.70046 12.0206 2.65479 11.9292 2.63327C11.7675 2.52792 11.5705 2.4871 11.3789 2.51927H11.3529L10.9195 2.6206H10.8719C10.6424 2.69935 10.4273 2.81339 10.2349 2.95838C10.0875 3.08083 9.93587 3.0386 9.9792 3.33838C10.0225 3.63816 10.2825 3.56638 10.3432 3.7606C10.3653 3.85029 10.3642 3.94391 10.34 4.03308C10.3158 4.12224 10.2692 4.20416 10.2045 4.27149C10.1864 4.30914 10.177 4.35023 10.177 4.39183C10.177 4.43342 10.1864 4.47451 10.2045 4.51216C10.2775 4.57801 10.339 4.65502 10.3865 4.74016C10.3986 4.76012 10.4132 4.77855 10.4299 4.79505Z" fill="#A8C66A"/>
<path d="M8.91747 3.15267C8.98247 3.03023 9.04747 2.96267 8.91747 2.88667C8.83154 2.85454 8.73734 2.8499 8.64852 2.87344C8.5597 2.89697 8.48087 2.94745 8.42347 3.01756C8.35414 3.14 8.19814 3.33845 8.32381 3.43978C8.44947 3.54112 8.55781 3.68467 8.67481 3.54534C8.79181 3.406 8.86981 3.38912 8.91747 3.22867C8.96514 3.06823 8.91747 3.15267 8.91747 3.15267Z" fill="#A8C66A"/>
<path d="M9.56758 15.6461C9.42393 15.5449 9.26233 15.4705 9.09091 15.4265C8.83091 15.3716 8.73125 15.2408 8.57958 15.2956C8.52712 15.3197 8.48014 15.3538 8.44144 15.3958C8.40273 15.4379 8.37308 15.4871 8.35425 15.5405C8.46089 15.7128 8.63164 15.8383 8.83091 15.891C9.00425 15.9205 9.33358 15.9205 9.47658 16.0599C9.60646 16.206 9.78686 16.3007 9.98358 16.3259C10.1656 16.3259 10.2869 16.2203 10.2479 16.1063C10.0494 15.9166 9.81941 15.761 9.56758 15.6461Z" fill="#A8C66A"/>
<path d="M9.61533 16.3808C9.30333 16.2752 9.351 16.6088 9.351 16.6088C9.442 16.8368 9.51133 16.7692 9.71933 16.8156C9.92733 16.8621 10.0487 16.8156 9.936 16.6594C9.90426 16.5945 9.85955 16.5365 9.80449 16.4886C9.74942 16.4408 9.68512 16.4041 9.61533 16.3808Z" fill="#A8C66A"/>
<path d="M10.7117 16.0684C10.5167 16.1064 10.4777 16.3428 10.4777 16.3428C10.365 16.4104 10.2307 16.4273 10.2653 16.5962C10.3 16.765 10.3347 16.5962 10.5947 16.8157C10.8547 17.0353 10.937 17.0437 11.1407 16.7566C11.3443 16.4695 11.431 16.5413 11.2273 16.3048C11.0237 16.0684 10.9023 16.0219 10.7117 16.0684Z" fill="#A8C66A"/>
<path d="M10.7591 26.8941C10.7591 27.0038 10.7591 27.1052 10.7591 27.2318C10.8328 28.0383 10.6161 27.9834 10.6161 28.6336C10.6161 29.2838 10.7895 29.2585 10.7765 29.7821C10.7635 30.3056 10.2521 30.2043 10.7765 30.787C11.102 31.1464 11.5023 31.4343 11.9508 31.6314C12.1978 31.7707 12.8825 32.1085 12.8695 31.9396C12.8565 31.7707 12.6788 31.8003 12.4361 31.4878C12.1935 31.1754 12.3365 31.3612 12.3365 30.9052C12.3365 30.4492 11.9985 30.7658 12.2021 30.2972C12.4058 29.8285 12.3928 30.3689 12.4925 29.8158C12.5921 29.2627 12.4925 29.3345 12.8738 29.1065C13.2551 28.8785 13.4241 29.2923 13.5845 28.8658C13.7448 28.4394 13.3375 28.5703 13.7448 28.2874C14.1521 28.0045 13.9181 28.4141 14.3558 27.8652C14.7935 27.3163 14.9061 27.5992 15.0361 27.0207C15.1661 26.4423 14.8498 26.6281 15.1141 26.3621C13.6993 26.723 12.2434 26.9088 10.7808 26.9152L10.7591 26.8941Z" fill="#97BD4C"/>
<path d="M17.5366 21.6629C17.1033 21.5658 16.9863 21.7643 16.8996 21.494C16.8129 21.2238 17.0296 21.1563 16.6049 21.1098C16.1803 21.0634 15.9073 21.1098 15.7383 20.8269C15.5693 20.544 15.4176 20.5314 14.9669 20.544C14.5163 20.5567 14.8933 20.5736 14.7069 20.1894C14.5206 19.8051 15.0969 19.8643 14.4296 19.556C13.7623 19.2478 13.4979 19.2689 13.1773 18.986C12.8566 18.7032 12.9303 18.5892 12.8306 18.4203C12.7309 18.2514 12.6703 18.2092 12.2629 18.1669C11.9622 18.1556 11.6646 18.103 11.3789 18.0107C11.1319 17.9094 11.0626 17.77 10.9456 17.8418C10.8286 17.9136 10.9023 18.2092 10.7723 18.036C10.6423 17.8629 10.7289 17.6687 10.5686 17.7278C10.4044 17.8111 10.249 17.9101 10.1049 18.0234C9.91426 18.1374 10.0139 18.3232 9.67159 18.378C9.32926 18.4329 9.39426 18.3231 9.17759 18.3063C8.96092 18.2894 9.07359 18.6905 8.81359 18.3654C8.7309 18.2805 8.66645 18.1804 8.62403 18.0709C8.58162 17.9614 8.56209 17.8448 8.56659 17.7278C8.57125 17.557 8.56111 17.3861 8.53626 17.2169C8.49292 17.0185 8.44959 16.9763 8.18959 16.9045C7.92959 16.8327 7.64792 17.0058 7.69559 16.7483C7.74326 16.4907 8.01192 16.4358 7.99892 16.1403C7.98592 15.8447 7.94259 15.718 7.78226 15.718C7.62192 15.718 7.46159 15.8743 7.12792 15.9883C6.79426 16.1023 6.73359 16.3429 6.41292 16.1276C6.09226 15.9123 6.16592 15.7476 6.09659 15.376C6.04624 15.256 6.03173 15.1245 6.05473 14.9968C6.07773 14.869 6.1373 14.7502 6.22659 14.654C6.44326 14.2994 6.39992 14.2023 6.75092 14.1896C7.09876 14.2087 7.44742 14.2087 7.79526 14.1896C8.05959 14.1305 7.60892 13.8645 8.05959 13.9912C8.51026 14.1178 8.40626 14.0756 8.56659 14.502C8.72692 14.9285 8.65326 15.2789 8.99992 15.0931C9.34659 14.9074 9.52426 15.0509 9.40726 14.5569C9.29026 14.0629 8.88292 14.274 9.27726 13.7758C9.44752 13.5094 9.69061 13.2945 9.97926 13.1551C10.3519 12.8976 10.2046 13.1805 10.3519 12.7329C10.4993 12.2854 10.4083 12.6485 10.5859 12.3951C10.7636 12.1418 10.3216 12.3952 10.7159 12.0278C10.8814 11.8408 11.0911 11.6959 11.3269 11.6056C11.7039 11.3903 11.5566 11.3227 11.6606 11.0947C11.7646 10.8667 11.9076 10.74 12.2283 10.9089C12.5489 11.0778 12.4579 11.2087 12.7959 10.854C13.1339 10.4994 12.9823 10.2883 13.3029 10.4698C13.6236 10.6514 13.9703 10.8245 13.7363 10.4149C13.5023 10.0054 13.3029 9.9927 13.0559 9.9927C12.8089 9.9927 12.6226 10.2165 12.6746 9.89137C12.7266 9.56626 12.4709 9.09759 12.7916 9.31293C13.1123 9.52826 13.1556 9.70982 13.3723 9.43959C13.5889 9.16937 13.4026 9.33826 13.7536 9.1567C13.9047 9.06683 14.0662 8.99456 14.2346 8.94137C14.2346 8.94137 13.7233 9.24115 13.7103 9.52404C13.6973 9.80693 13.6626 9.83648 14.0136 10.0054C14.3646 10.1743 14.3169 10.2756 14.5639 10.246C14.8109 10.2165 14.9583 10.2883 14.8976 9.89137C14.8348 9.62184 14.7537 9.35667 14.6549 9.09759C14.5943 8.83159 14.7243 8.67537 14.4946 8.35026C14.2649 8.02515 13.9789 7.88159 13.7579 7.56915C13.6051 7.3844 13.5184 7.15609 13.5109 6.91893C13.4676 6.63604 13.5109 6.56426 13.2899 6.55159C13.0689 6.53893 12.8566 6.90204 12.6659 6.79648C12.4753 6.69093 12.6659 6.58959 12.4059 6.33626C12.3379 6.23957 12.2501 6.15773 12.1478 6.09595C12.0456 6.03416 11.9314 5.99378 11.8123 5.97737C11.4483 5.88448 11.4483 6.07026 11.3789 5.88448C11.3096 5.6987 11.3789 5.46226 11.2056 5.60159C11.1207 5.66784 11.0565 5.756 11.0205 5.85603C10.9845 5.95607 10.9781 6.06394 11.0019 6.16737C11.0128 6.41497 10.9939 6.66295 10.9456 6.90626C10.9456 6.94848 10.9456 6.97382 10.9456 6.97382C10.9456 6.97382 10.8459 6.80493 10.8719 7.21448C10.8979 7.62404 10.7549 7.78448 10.6856 7.78448C10.6163 7.78448 10.9759 7.40026 10.6423 7.56915C10.3086 7.73804 10.3519 7.17648 10.3043 7.56915C10.2566 7.96182 10.2479 7.72537 10.2176 8.08004C10.1873 8.4347 10.4213 8.40515 10.2176 8.50226C10.0139 8.59937 10.0096 8.61626 9.94026 8.24893C9.87092 7.88159 10.4689 7.95337 9.84926 7.72537C9.22959 7.49737 9.30759 7.61137 8.98259 7.41293C8.65759 7.21448 8.42792 7.61137 8.41492 7.07515C8.40192 6.53893 7.94692 6.91893 8.41492 6.49248C8.68792 6.23915 8.73559 6.1927 8.80492 6.1167C9.17759 6.1167 9.34659 6.35737 9.44192 6.0027C9.53726 5.64804 9.44192 5.55937 9.44192 5.37359C9.50692 5.27226 9.54159 5.26382 9.64559 5.44115C9.84926 5.79582 9.73659 5.93515 10.0789 6.0027C10.4213 6.07026 10.3996 6.15048 10.3563 5.88026C10.3129 5.61004 10.1093 5.57204 10.3823 5.59737C10.6553 5.6227 10.7896 5.96893 10.8156 5.65648C10.8416 5.34404 10.8589 5.39893 10.6423 5.23426C10.4256 5.06959 10.6423 5.06115 10.4083 4.88804C10.3666 4.85722 10.3288 4.82179 10.2956 4.78248C10.2068 4.73244 10.1415 4.65065 10.1136 4.55448L10.0746 4.51226C9.78426 4.22937 10.0269 4.31382 9.89692 4.09004C9.76692 3.86626 9.77992 4.38559 9.53292 4.00559C9.28592 3.62559 9.59359 3.50737 9.27292 3.4947C8.95226 3.48204 8.83959 3.52426 8.83959 3.74804C8.83959 3.97182 9.04326 4.17026 8.83959 4.14493C8.63592 4.11959 8.67926 3.93382 8.40626 4.01826C8.13326 4.1027 8.34559 4.34337 8.08992 4.36026C7.83426 4.37715 7.96426 4.36026 7.83859 4.36026C7.71292 4.36026 6.72492 4.67693 6.97192 4.48693C6.83719 4.60143 6.67697 4.68382 6.50392 4.72759C6.3171 4.73338 6.13038 4.71348 5.94926 4.66848C4.67696 5.84444 3.5944 7.20102 2.73826 8.69226C2.73826 8.9667 2.57792 8.95404 2.57792 9.32137C2.57792 9.6887 2.69492 9.6887 2.66459 9.92937C2.63426 10.17 2.20092 10.5543 2.23126 11.3312C2.26159 12.108 2.23126 12.3529 2.52159 12.8216C2.81192 13.2903 2.92892 13.2438 2.98526 13.5858C3.04159 13.9278 2.88559 14.0798 3.04592 14.3923C3.20626 14.7047 3.37959 14.6456 3.47926 15.0425C3.57892 15.4394 3.68292 15.8363 3.86059 15.6252C4.03826 15.414 4.00359 15.3845 3.83026 15.0003C3.65692 14.616 3.26259 14.1558 3.58326 14.2783C3.7603 14.3695 3.91698 14.4942 4.04418 14.6449C4.17139 14.7957 4.26659 14.9696 4.32426 15.1565C4.44126 15.5407 3.99059 15.8658 4.59292 16.3471C5.19526 16.8285 5.26892 17.2549 5.80626 17.124C6.34359 16.9931 6.37392 17.0143 6.67292 17.3394C6.97192 17.6645 6.90692 17.6223 7.28392 17.7616C7.66092 17.9009 7.44426 17.8629 7.85159 18.1838C8.25892 18.5047 8.19826 18.6652 8.71826 18.8383C9.23826 19.0114 9.47226 18.7496 9.34226 19.2605C9.21226 19.7714 9.02159 19.3872 8.90892 20.1049C8.79626 20.8227 8.87859 20.6411 8.82226 21.0507C8.76592 21.4603 8.32826 21.0254 8.90892 22.0007C9.48959 22.976 9.00859 23.0774 9.77559 23.5883C10.5426 24.0992 10.7506 24.0105 10.7636 25.0323C10.7636 25.8767 10.7203 26.2989 10.7636 26.9196H10.8026C12.2651 26.9133 13.7211 26.7275 15.1359 26.3665C15.1616 26.334 15.1891 26.303 15.2183 26.2736C15.6863 25.8514 16.0849 25.8514 16.3969 25.4545C16.6495 25.161 16.7795 24.7857 16.7609 24.4032C16.8043 23.8374 16.4273 23.8796 16.9213 23.3434C17.4153 22.8071 17.5453 23.3434 17.5453 22.5791C17.5453 21.8149 17.9613 21.7643 17.5366 21.6629Z" fill="#A8C66A"/>
<path d="M10.3302 4.7529C10.2827 4.66776 10.2212 4.59075 10.1482 4.5249C10.1614 4.57282 10.1843 4.61768 10.2155 4.65684C10.2468 4.696 10.2858 4.72866 10.3302 4.7529Z" fill="#A8C66A"/>
<path d="M11.678 2.18571C11.795 2.07593 12.029 2.52771 12.172 2.18571C12.315 1.84371 12.0853 1.79304 12.4363 1.56504C12.7873 1.33704 12.9173 1.50593 13.134 1.39615C13.443 1.13803 13.8118 0.956907 14.2086 0.868375C14.2086 0.868375 14.4123 0.952819 14.005 1.12171C13.5976 1.2906 13.277 1.03726 13.3073 1.49326C13.3376 1.94926 13.2683 2.19837 13.784 2.19837C14.2996 2.19837 14.8196 1.80149 15.1403 2.37149C15.461 2.94149 15.11 3.50304 15.37 3.75638C15.63 4.00971 15.7513 3.78593 15.604 4.1786C15.4566 4.57126 15.253 4.57549 15.487 5.08638C15.721 5.59726 15.383 5.59304 15.669 6.01949C15.955 6.44593 16.1846 6.69926 16.5053 6.75415C16.826 6.80904 16.826 6.78371 17.2333 6.16304C17.6406 5.54238 17.58 5.17082 17.9873 5.02726C18.3946 4.88371 18.4553 5.28482 18.685 4.91326C18.9146 4.54171 18.919 4.57549 19.413 4.49104C19.907 4.4066 20.3446 4.37704 20.4313 4.1786C20.518 3.98015 20.3706 3.88726 20.6046 3.81971C20.8386 3.75215 20.9556 3.66771 20.895 3.39749C20.8343 3.12726 20.4616 2.97526 20.895 2.7726C21.3283 2.56993 21.5493 2.63326 21.4626 2.32082C21.414 2.13708 21.375 1.95106 21.3456 1.76349C21.2286 1.2526 21.2373 1.16815 21.5103 1.0246C21.7833 0.881042 21.3456 0.940153 21.779 0.868375C22.2123 0.796597 22.6196 0.910597 22.39 0.737486C22.1603 0.564375 21.9566 0.57282 21.48 0.57282C21.0033 0.57282 21.0813 0.526375 20.856 0.251931C17.4137 -0.333946 13.8701 0.107581 10.69 1.5186H10.7463C10.8503 1.58193 10.3563 1.58193 10.469 1.75504C10.5446 1.8307 10.6358 1.88979 10.7367 1.92837C10.8376 1.96696 10.9457 1.98416 11.054 1.97882C11.2836 2.00838 11.2576 2.17726 10.9933 2.17726C10.729 2.17726 10.6163 2.03793 10.2653 2.00837L9.76696 1.94926L9.51562 2.08015C9.72796 2.25749 9.65429 2.40526 9.94896 2.45593C10.2436 2.5066 10.6163 2.48549 10.4126 2.62904C10.274 2.72193 10.5686 2.66282 10.8936 2.58682C11.0491 2.53748 11.2086 2.50076 11.3703 2.47704C11.717 2.4306 11.5653 2.29549 11.678 2.18571Z" fill="#A8C66A"/>
<path d="M11.379 2.51929C11.2173 2.543 11.0579 2.57972 10.9023 2.62906L11.3357 2.52773L11.379 2.51929Z" fill="#A8C66A"/>
<path d="M9.0042 2.72619C9.20786 2.50241 9.54586 2.2153 9.35086 2.20264C9.08653 2.35041 8.82653 2.49819 8.5752 2.65864C8.69653 2.78953 8.8482 2.89508 9.0042 2.72619Z" fill="#A8C66A"/>
<path d="M21.4713 4.98077L21.506 4.93433C21.4453 4.95966 21.4453 4.9681 21.4713 4.98077Z" fill="#8EB63E"/>
<path d="M21.5059 5.87171C21.9696 5.67326 22.2902 5.36082 22.0866 5.16238C21.8829 4.96393 21.5579 5.01038 21.4712 4.98082C21.4062 5.06104 21.2459 5.21304 21.0682 5.10749C20.8906 5.00193 20.4876 4.73593 20.3446 4.93437C20.2016 5.13282 20.4876 5.30593 20.6046 5.64371C20.7216 5.98149 21.0422 6.07015 21.5059 5.87171Z" fill="#A8C66A"/>
<path d="M22.4722 9.0722C22.6975 9.1862 23.0182 9.38464 23.1612 9.0722C23.3042 8.75975 23.1048 8.73019 23.1612 8.42197C23.2175 8.11375 23.5685 8.19397 23.2218 8.10953C23.1342 8.07972 23.0402 8.07183 22.9486 8.08658C22.857 8.10133 22.7707 8.13826 22.6975 8.19397C22.6023 8.32365 22.5265 8.4658 22.4722 8.6162C22.4072 8.8442 22.2468 8.9582 22.4722 9.0722Z" fill="#A8C66A"/>
<path d="M23.5686 8.66263C23.4819 8.92863 23.3823 9.2073 23.3736 9.24107C23.3649 9.27485 23.0443 9.40996 23.4213 9.35507C23.7983 9.30018 23.8546 9.38041 24.0929 9.24107C24.3313 9.10174 24.4699 9.21574 24.6173 8.92863C24.7646 8.64152 24.8209 8.60352 24.5003 8.32907C24.1796 8.05463 24.1233 7.94063 24.1233 7.62818C24.1233 7.31574 24.2403 7.51418 23.9759 7.28618C23.7116 7.05818 24.0626 6.97374 23.7159 7.06241C23.5347 7.09566 23.3648 7.17259 23.2219 7.28618C23.3569 7.54378 23.4727 7.81046 23.5686 8.08418C23.6437 8.27006 23.6437 8.47676 23.5686 8.66263Z" fill="#A8C66A"/>
<path d="M24.4135 7.02869C24.4438 6.77536 24.3268 6.58114 24.1968 6.60647C24.1026 6.6427 24.0245 6.70993 23.9758 6.79647C24.1535 7.03292 24.3788 7.27781 24.4135 7.02869Z" fill="#A8C66A"/>
<path d="M25.2455 11.9179C25.2455 11.7617 25.0158 11.6519 24.9985 11.6772L24.8381 11.9179C24.8078 11.9897 24.6648 12.3401 24.8381 12.2726C25.0115 12.205 25.2455 12.0741 25.2455 11.9179Z" fill="#A8C66A"/>
<path d="M26.9443 12.7245C27.0873 12.6696 26.9139 12.64 26.9443 12.4712C26.948 12.4487 26.9471 12.4257 26.9417 12.4036C26.9363 12.3815 26.9265 12.3606 26.9128 12.3422C26.8991 12.3237 26.8818 12.3081 26.862 12.2962C26.8421 12.2843 26.82 12.2763 26.7969 12.2727L26.5933 12.4712C26.5952 12.5119 26.6064 12.5516 26.6261 12.5876C26.6457 12.6236 26.6734 12.6548 26.707 12.6791C26.7406 12.7033 26.7793 12.72 26.8204 12.7279C26.8614 12.7357 26.9037 12.7346 26.9443 12.7245Z" fill="#A8C66A"/>
<path d="M29.2972 13.2352C29.1802 13.0368 29.2582 12.9523 29.0329 13.0114C28.9673 13.0258 28.9054 13.0531 28.851 13.0915C28.7966 13.13 28.7509 13.1789 28.7166 13.2352C28.7166 13.2352 28.9506 13.4632 29.1239 13.4083C29.2972 13.3534 29.4142 13.4337 29.2972 13.2352Z" fill="#8EB63E"/>
<path d="M33.6608 15.0212C34.0378 15.0212 34.1808 14.8776 34.3585 15.1352C34.5361 15.3928 34.6098 15.4645 34.7918 15.5236C34.7364 13.4409 34.2792 11.387 33.4441 9.46898C32.7463 8.09108 31.8584 6.81259 30.8051 5.66898C30.7719 5.69765 30.7337 5.72051 30.6925 5.73654C30.4325 5.85054 30.3458 5.99409 30.1985 5.82098C30.0511 5.64787 29.5615 5.3692 29.9385 5.42409C30.3155 5.47898 30.5755 5.90543 30.4628 5.42409C30.4472 5.36406 30.4284 5.30486 30.4065 5.24676C30.1941 5.0272 29.9731 4.82454 29.7478 4.61342C29.5788 4.52898 29.3665 4.38965 29.1541 4.26298C28.8871 4.09118 28.5727 4.0028 28.2528 4.00965C27.863 4.03496 27.4798 4.12047 27.1175 4.26298L27.0828 4.28409C27.2946 4.85712 27.4754 5.44059 27.6245 6.03209C28.0578 5.56342 28.4478 5.04831 28.3091 5.42409C28.1705 5.79987 27.7285 6.10387 27.9018 6.34454C28.0751 6.5852 27.9018 6.59787 28.1185 6.80476C28.3351 7.01165 28.4565 7.01165 28.5995 6.95676C28.7425 6.90187 28.7728 6.6992 28.7468 6.89765C28.7208 7.09609 28.2225 7.09609 28.1185 7.31987C28.0145 7.54365 28.0361 7.59854 27.9581 7.7632C28.0651 8.50892 28.1216 9.2607 28.1271 10.0136C28.1254 10.6528 28.0863 11.2914 28.0101 11.9263C28.0578 12.1628 28.1185 12.3485 28.1185 12.3485C28.2225 12.5765 28.0491 12.7454 28.3395 12.8045C28.6298 12.8636 28.7728 13.0283 28.7728 12.5765C28.7728 12.1248 28.5431 12.1796 28.8031 11.9516C29.0631 11.7236 29.0068 11.445 29.0935 12.0108C29.1801 12.5765 29.0631 12.889 29.5008 12.8552C29.9385 12.8214 29.9948 12.8003 30.1118 12.9396C30.2288 13.079 30.0815 13.1972 30.3458 13.2816C30.6101 13.3661 30.7228 13.307 30.5755 13.5899C30.4281 13.8728 30.6665 13.7039 30.4325 13.877C30.0995 14.0111 29.7296 14.0305 29.3838 13.9319C29.0068 13.877 29.5008 13.8474 29.0068 13.877C28.5128 13.9065 28.7165 13.6785 28.4565 13.5899C28.1965 13.5012 28.1618 13.3956 27.9885 13.6785C27.8151 13.9614 28.0188 14.1852 27.6678 14.0459L27.6158 14.0163C27.1314 15.9598 26.2965 17.804 25.1501 19.463C25.2048 19.4976 25.2507 19.5438 25.2845 19.5981C25.5185 19.9359 25.9821 19.5981 25.9258 20.0499C25.8695 20.5016 25.5488 20.5608 25.8391 21.0421C26.1295 21.5234 26.6235 21.4094 26.6235 22.1779C26.6235 22.9463 27.0308 23.1659 26.6235 23.5923C26.2161 24.0188 26.1121 24.1159 26.3331 24.5128C26.5484 24.8846 26.6674 25.302 26.6798 25.7288C26.7665 26.379 26.4631 26.493 26.8055 26.9954C27.1478 27.4979 26.8271 27.7048 27.1738 27.9876C27.5205 28.2705 27.6418 28.4099 27.9625 28.2156C28.2831 28.0214 28.2528 27.8483 28.6601 27.7639C29.0675 27.6794 29.0631 27.5908 29.4141 27.1094C29.6223 26.861 29.8079 26.5954 29.9688 26.3156C30.2288 25.8639 30.2851 26.1763 30.4021 25.7499C30.5191 25.3234 30.2591 25.3276 30.5495 24.9308C30.8398 24.5339 30.9265 24.6732 31.2471 24.1919C31.5678 23.7105 31.4768 23.6556 31.4508 23.0603C31.4248 22.465 31.3121 22.5494 31.4811 21.8696C31.6501 21.1899 31.4811 21.6163 32.1181 20.9365C32.7551 20.2568 32.8721 20.2905 33.0455 19.7796C33.1855 19.4896 33.2917 19.1851 33.3618 18.8719C33.4528 18.3905 33.5958 17.9725 33.2491 18.1541C32.9025 18.3356 32.5211 18.5763 32.2611 18.3356C31.9691 17.9014 31.7154 17.4438 31.5028 16.9676C31.3295 16.6932 31.2688 15.9796 30.9785 15.8108C30.6881 15.6419 30.7488 15.701 30.6015 15.2914C30.4541 14.8819 30.2245 14.5399 30.5148 14.6792C30.8051 14.8185 30.8615 14.8819 31.1258 15.2914C31.3523 15.6295 31.5467 15.9871 31.7065 16.3596C31.8538 16.7228 31.9968 16.9761 32.1701 17.3139C32.3435 17.6516 32.2611 17.7361 32.3738 17.9388C32.4865 18.1414 32.5515 18.0823 32.8981 17.8839C33.2448 17.6854 33.5655 17.5123 33.9165 17.2885C34.2675 17.0648 34.3801 17.1745 34.4408 16.7228C34.5015 16.271 34.6141 16.5665 34.4408 16.0472C34.2675 15.5279 34.2935 15.2028 33.9468 15.2914C33.8324 15.3454 33.7007 15.353 33.5806 15.3127C33.4604 15.2723 33.3615 15.1873 33.3055 15.0761C33.1321 14.8523 32.7811 14.4554 33.0455 14.4808C33.3098 14.5061 33.2795 15.0212 33.6608 15.0212Z" fill="#97BD4C"/>
<path d="M27.148 13.6322C26.983 13.5298 26.8072 13.4449 26.6237 13.3789C26.3594 13.3198 26.303 13.2649 26.3334 12.9567C26.3637 12.6484 26.16 12.5598 25.926 12.5049C25.509 12.5145 25.0962 12.5901 24.704 12.7287C24.4069 12.8731 24.0784 12.9455 23.7464 12.9398C23.4257 12.8722 23.2784 12.9398 22.9014 13.1847C22.5244 13.4295 22.6804 13.5224 22.468 13.9784C22.2557 14.4344 22.1994 14.1473 21.792 14.5738C21.3847 15.0002 21.2027 14.996 21.2244 15.5618C21.246 16.1275 20.8907 15.9207 21.064 16.364C21.2374 16.8073 20.999 16.4991 21.0164 17.1198C21.0337 17.7404 20.6827 17.9642 21.2244 18.5384C21.766 19.1127 21.7487 19.5011 22.468 19.67C23.1874 19.8389 23.131 19.5307 23.5384 19.67C23.9457 19.8093 24.119 19.67 24.5264 19.5855C24.847 19.518 24.9857 19.3744 25.146 19.48C26.2924 17.821 27.1273 15.9768 27.6117 14.0333C27.3344 13.8982 27.3344 13.7631 27.148 13.6322Z" fill="#A8C66A"/>
<path d="M26.5457 4.8583C26.2553 5.1623 26.199 5.79986 25.7917 5.97719C25.3843 6.15452 25.1243 6.18408 25.211 6.58097C25.2977 6.97786 25.1243 7.28608 25.5317 7.40008C25.939 7.51408 25.939 7.0623 26.1687 7.31564C26.3983 7.56897 25.9953 7.85186 26.459 7.91097C26.9227 7.97008 26.953 8.36275 27.1307 7.94052C27.3083 7.5183 27.1003 7.5183 27.3603 7.28608C27.6203 7.05386 27.9453 7.28608 27.681 6.7963C27.4167 6.30652 27.07 6.58097 27.538 6.09541L27.6073 6.02363C27.4583 5.43213 27.2775 4.84866 27.0657 4.27563C26.81 4.38963 26.8403 4.56697 26.5457 4.8583Z" fill="#A8C66A"/>
<path d="M27.3515 8.24887C26.9702 8.27842 26.8575 8.33753 26.6235 8.22353C26.3895 8.10953 26.3029 8.27842 26.1902 8.07998C26.0775 7.88153 26.1035 7.45931 25.9302 7.68309C25.7569 7.90687 25.6659 7.82665 25.7265 8.10531C25.7872 8.38398 25.8132 8.41776 25.4622 8.5022C25.1112 8.58665 25.1155 8.72598 24.8555 9.06798C24.5955 9.40998 24.3312 9.32131 24.0409 9.51976C23.7505 9.7182 23.2825 9.46487 23.5729 9.91665C23.8632 10.3684 24.4395 10.2586 24.1839 10.5711C23.9282 10.8835 24.4179 10.9089 23.9239 10.8793C23.4299 10.8498 23.0225 10.626 22.8189 11.0524C22.6152 11.4789 22.3855 11.4493 22.4765 11.8969C22.5675 12.3444 22.4765 12.716 22.9099 12.6611C23.3432 12.6062 23.7245 12.8046 24.0712 12.5218C24.4179 12.2389 24.3659 12.0995 24.5392 11.842C24.6992 11.5708 24.9292 11.3451 25.2065 11.1875C25.4665 11.0735 25.5575 10.8498 25.8739 10.9891C26.1902 11.1284 26.1382 11.1875 26.4589 11.4113C26.7795 11.6351 26.5455 11.5506 26.8922 11.8082C27.2389 12.0658 27.2129 11.8082 27.2432 12.0615C27.2735 12.3149 27.0699 12.5175 27.2995 12.4838C27.5292 12.45 27.5899 12.3993 27.6202 12.2009C27.6505 12.0024 27.7372 11.9433 27.7935 12.032C27.8499 12.1206 28.2269 12.032 27.8239 11.7744C27.5889 11.6558 27.3811 11.4921 27.2129 11.2931C26.8662 10.9553 26.7189 10.9806 26.6885 10.7569C26.6582 10.5331 26.8922 10.4993 27.2995 10.9553C27.7069 11.4113 27.9409 11.2213 27.9712 11.576C27.9807 11.6865 27.9967 11.7965 28.0189 11.9053C28.0951 11.2704 28.1341 10.6318 28.1359 9.99265C28.1303 9.2397 28.0738 8.48792 27.9669 7.7422C27.9511 7.78428 27.9323 7.8252 27.9105 7.86465C27.7285 8.16442 27.7285 8.22353 27.3515 8.24887Z" fill="#A8C66A"/>
</svg>
