<svg width="24" height="24" viewBox="0 0 24 24" fill="none" xmlns="http://www.w3.org/2000/svg">
<path d="M12.0042 1.28322e-07C7.20275 -0.000699726 2.86325 2.86135 0.973396 7.27528L0.823828 7.32487L0.881815 7.49884C-1.60647 13.6359 1.35137 20.6281 7.48839 23.1163C8.92175 23.6975 10.454 23.9959 12.0007 23.995C18.6267 23.996 23.999 18.6253 24 11.9993C24.001 5.37328 18.6303 0.00094993 12.0042 1.28322e-07ZM21.4149 18.0464L20.7989 17.4308V15.9967C20.7996 15.9348 20.7859 15.8736 20.7589 15.8179L19.1992 12.703V11.1977C19.1992 11.1318 19.183 11.067 19.1519 11.009C19.1209 10.951 19.076 10.9015 19.0212 10.8649L17.8215 10.0651C17.775 10.0341 17.7225 10.0131 17.6674 10.0036C17.6123 9.99409 17.5558 9.99624 17.5016 10.0099L16.0323 10.377L13.5644 9.31806L13.2248 6.93935L14.1658 5.99875H16.1858L16.8657 7.02054C16.8961 7.06601 16.9354 7.10476 16.9814 7.13441C17.0273 7.16405 17.0789 7.18396 17.1328 7.1929L19.5323 7.59282C19.5966 7.6036 19.6625 7.59838 19.7243 7.57762L21.9342 6.84097C23.7878 10.398 23.5895 14.6761 21.4149 18.0464ZM19.7655 3.94078L19.1152 4.37429L17.3024 4.01156L16.1262 3.62005C16.0543 3.59558 15.9768 3.59252 15.9031 3.61125L14.4162 3.98277L13.7643 3.76562L14.2474 2.79942H15.5999C15.662 2.79948 15.7232 2.7851 15.7787 2.75743L17.1624 2.06557C18.1153 2.56294 18.9919 3.19445 19.7655 3.94078ZM7.62041 1.69285L8.58021 2.33271C8.62738 2.3641 8.68068 2.38509 8.73658 2.3943L10.6746 2.71743L10.4854 3.28332L9.47563 3.62045C9.38517 3.65054 9.30845 3.71195 9.25927 3.79361L8.11071 5.70761L6.26589 6.81458L3.54646 7.2029C3.45112 7.21638 3.36385 7.2638 3.30067 7.33646C3.23749 7.40912 3.20264 7.50213 3.20253 7.59842V8.79817C3.20255 8.90422 3.2447 9.00593 3.31971 9.08091L4.00237 9.76357V10.4506L2.33871 9.34125L1.73524 7.53083C2.88338 4.90738 4.9878 2.81984 7.62041 1.69285ZM6.48185 14.8049L4.67423 14.443L4.00237 13.1029V12.1631L5.49246 10.673L6.04394 11.7763C6.07716 11.8428 6.12825 11.8987 6.19147 11.9378C6.25469 11.9769 6.32755 11.9975 6.40187 11.9975H8.97493L10.0583 13.8031C10.0938 13.8623 10.1441 13.9112 10.2041 13.9452C10.2642 13.9792 10.332 13.9971 10.401 13.9971H11.5128L11.2329 15.3996L9.71877 16.9137C9.68157 16.9508 9.65204 16.9948 9.63186 17.0434C9.61169 17.0919 9.60127 17.1439 9.6012 17.1964V18.1962L8.1615 19.276C8.11184 19.3132 8.07153 19.3615 8.04376 19.4171C8.016 19.4726 8.00154 19.5338 8.00153 19.5959V21.0404L7.50404 20.8757L6.80178 19.1192V15.1968C6.8018 15.1046 6.76997 15.0153 6.71167 14.9439C6.65336 14.8724 6.57218 14.8234 6.48185 14.8049ZM5.2797 20.9527C1.50903 18.1238 -0.0855829 13.236 1.29133 8.72778L1.62366 9.72437C1.65165 9.80872 1.70695 9.88133 1.78083 9.93073L3.77441 11.2597L3.31971 11.7148C3.2447 11.7897 3.20255 11.8914 3.20253 11.9975V13.1973C3.20247 13.2593 3.21684 13.3205 3.24452 13.376L4.04436 14.9757C4.07169 15.0302 4.11112 15.0777 4.15964 15.1147C4.20815 15.1516 4.26448 15.177 4.3243 15.1888L6.00395 15.5244V19.196C6.00391 19.2468 6.01354 19.2972 6.03234 19.3444L6.83218 21.344C6.85381 21.3979 6.88695 21.4465 6.92929 21.4864C6.97163 21.5262 7.02215 21.5564 7.07732 21.5747L8.27707 21.9746C8.31714 21.9882 8.35914 21.9952 8.40145 21.9954C8.50751 21.9954 8.60923 21.9533 8.68423 21.8783C8.75923 21.8033 8.80136 21.7016 8.80136 21.5955V19.7959L10.2411 18.7161C10.2907 18.6788 10.331 18.6305 10.3588 18.575C10.3866 18.5195 10.401 18.4583 10.401 18.3962V17.362L11.8835 15.8795C11.9393 15.8236 11.9773 15.7525 11.9927 15.6751L12.3926 13.6756C12.4042 13.6176 12.4028 13.5577 12.3885 13.5003C12.3741 13.4429 12.3473 13.3894 12.3098 13.3437C12.2723 13.298 12.2251 13.2611 12.1717 13.2358C12.1182 13.2104 12.0598 13.1973 12.0007 13.1973H10.6274L9.54401 11.3916C9.50847 11.3325 9.45823 11.2835 9.39818 11.2495C9.33812 11.2156 9.27029 11.1977 9.20128 11.1977H6.64901L5.96196 9.81915C5.9336 9.76243 5.89215 9.71326 5.84104 9.67571C5.78994 9.63816 5.73063 9.61331 5.66802 9.6032C5.60548 9.59239 5.54125 9.59694 5.48085 9.61644C5.42045 9.63595 5.3657 9.66983 5.32129 9.71518L4.8022 10.2323V9.598C4.80218 9.49195 4.76003 9.39024 4.68502 9.31526L4.00237 8.6326V7.94514L6.45865 7.59442C6.51141 7.58676 6.56212 7.56868 6.60782 7.54123L8.60741 6.34148C8.66351 6.30777 8.71047 6.26081 8.74418 6.20471L9.86794 4.3319L10.9273 3.97837C10.9863 3.95902 11.0399 3.92606 11.0839 3.88215C11.1278 3.83825 11.1607 3.78463 11.1801 3.72562L11.58 2.52587C11.5981 2.47112 11.6041 2.4131 11.5977 2.35579C11.5913 2.29848 11.5725 2.24324 11.5427 2.19385C11.5129 2.14447 11.4728 2.10211 11.4251 2.06969C11.3775 2.03726 11.3233 2.01553 11.2665 2.00598L8.95173 1.62006L8.54502 1.34892C11.0616 0.52981 13.7874 0.631146 16.2362 1.63486L15.5056 1.99958H14.0003C13.9256 1.99918 13.8523 2.01967 13.7887 2.05876C13.7251 2.09784 13.6737 2.15395 13.6404 2.22074L12.8405 3.8204C12.815 3.87166 12.8007 3.9278 12.7987 3.98504C12.7968 4.04227 12.8071 4.09927 12.8291 4.15216C12.851 4.20506 12.8841 4.25262 12.926 4.29163C12.9679 4.33064 13.0177 4.3602 13.0721 4.37829L14.2718 4.77821C14.3438 4.80265 14.4213 4.80575 14.495 4.787L15.9819 4.41548L17.0712 4.77821C17.0868 4.7838 17.1029 4.7881 17.1192 4.791L19.1188 5.19092C19.1703 5.20142 19.2234 5.20159 19.2749 5.19143C19.3265 5.18127 19.3755 5.16098 19.4192 5.13173L20.3294 4.52466C20.7773 5.0236 21.1799 5.56149 21.5323 6.13192L19.5647 6.78779L17.4344 6.43266L16.7305 5.37688C16.6942 5.32241 16.645 5.27769 16.5873 5.24666C16.5297 5.21563 16.4653 5.19924 16.3998 5.19892H14.0003C13.8942 5.19894 13.7925 5.24109 13.7175 5.31609L12.5178 6.51584C12.4739 6.55976 12.4407 6.61331 12.4211 6.67224C12.4015 6.73117 12.3958 6.79388 12.4046 6.85537L12.8045 9.65479C12.8144 9.72284 12.8417 9.7872 12.8838 9.84163C12.9258 9.89606 12.9811 9.93873 13.0445 9.96552L15.8439 11.1653C15.9241 11.2 16.0135 11.2072 16.0982 11.1857L17.5263 10.8285L18.3994 11.4116V12.7973C18.3987 12.8592 18.4124 12.9204 18.4394 12.9761L19.999 16.091V17.5963C19.9991 17.7024 20.0412 17.8041 20.1162 17.8791L20.9528 18.7161C17.2425 23.6617 10.2253 24.6631 5.2797 20.9527Z" fill="white"/>
</svg>
