<svg width="38" height="38" viewBox="0 0 38 38" fill="none" xmlns="http://www.w3.org/2000/svg">
<path d="M2.11108 11.2986V32.5744C2.1122 33.4531 2.46176 34.2955 3.0831 34.9169C3.70443 35.5382 4.54683 35.8877 5.42553 35.8889H32.5744C33.4531 35.8877 34.2955 35.5382 34.9169 34.9169C35.5382 34.2955 35.8877 33.4531 35.8889 32.5744V11.2986L32.5744 2.11108H5.42553L2.11108 11.2986Z" fill="#DFDFDF"/>
<path d="M9.78689 8.24175C10.6357 8.24175 11.3238 7.55366 11.3238 6.70486C11.3238 5.85606 10.6357 5.16797 9.78689 5.16797C8.93809 5.16797 8.25 5.85606 8.25 6.70486C8.25 7.55366 8.93809 8.24175 9.78689 8.24175Z" fill="#7D1D17"/>
<path d="M28.2127 8.24175C29.0615 8.24175 29.7496 7.55366 29.7496 6.70486C29.7496 5.85606 29.0615 5.16797 28.2127 5.16797C27.3639 5.16797 26.6758 5.85606 26.6758 6.70486C26.6758 7.55366 27.3639 8.24175 28.2127 8.24175Z" fill="#7D1D17"/>
<path d="M32.5744 2.11108H5.42553C4.5461 2.1122 3.70306 2.46234 3.08161 3.08459C2.46015 3.70684 2.11108 4.55032 2.11108 5.42975V11.2986H35.8889V5.42975C35.8889 4.55032 35.5398 3.70684 34.9183 3.08459C34.2969 2.46234 33.4539 2.1122 32.5744 2.11108Z" fill="#95BB4A"/>
<path d="M9.78689 8.24175C10.6357 8.24175 11.3238 7.55366 11.3238 6.70486C11.3238 5.85606 10.6357 5.16797 9.78689 5.16797C8.93809 5.16797 8.25 5.85606 8.25 6.70486C8.25 7.55366 8.93809 8.24175 9.78689 8.24175Z" fill="#6C9D41"/>
<path d="M28.2127 8.24175C29.0615 8.24175 29.7496 7.55366 29.7496 6.70486C29.7496 5.85606 29.0615 5.16797 28.2127 5.16797C27.3639 5.16797 26.6758 5.85606 26.6758 6.70486C26.6758 7.55366 27.3639 8.24175 28.2127 8.24175Z" fill="#6C9D41"/>
<path d="M9.92196 14.5034H5.06641V19.359H9.92196V14.5034Z" fill="#BDBCB8"/>
<path d="M9.92196 20.9675H5.06641V25.8231H9.92196V20.9675Z" fill="#6C9D41"/>
<path d="M9.92196 27.4316H5.06641V32.2872H9.92196V27.4316Z" fill="#BDBCB8"/>
<path d="M17.5938 14.5034H12.7383V19.359H17.5938V14.5034Z" fill="#BDBCB8"/>
<path d="M17.5938 20.9675H12.7383V25.8231H17.5938V20.9675Z" fill="#6C9D41"/>
<path d="M17.5938 27.4316H12.7383V32.2872H17.5938V27.4316Z" fill="#BDBCB8"/>
<path d="M25.2613 14.5034H20.4058V19.359H25.2613V14.5034Z" fill="#BDBCB8"/>
<path d="M25.2613 20.9675H20.4058V25.8231H25.2613V20.9675Z" fill="#6C9D41"/>
<path d="M25.2613 27.4316H20.4058V32.2872H25.2613V27.4316Z" fill="#BDBCB8"/>
<path d="M32.9332 14.5034H28.0776V19.359H32.9332V14.5034Z" fill="#BDBCB8"/>
<path d="M32.9332 20.9675H28.0776V25.8231H32.9332V20.9675Z" fill="#6C9D41"/>
<path d="M32.9332 27.4316H28.0776V32.2872H32.9332V27.4316Z" fill="#BDBCB8"/>
</svg>
